<mxfile host="65bd71144e">
    <diagram id="r-hssegChHwMBUFeodyW" name="Offboarding">
        <mxGraphModel dx="1386" dy="665" grid="1" gridSize="10" guides="1" tooltips="1" connect="1" arrows="1" fold="1" page="1" pageScale="1" pageWidth="1169" pageHeight="827" math="0" shadow="0">
            <root>
                <mxCell id="0"/>
                <mxCell id="1" parent="0"/>
                <mxCell id="hDukkaT7l1Hp4GkBRoLi-1" value="Eagle Ops" style="swimlane;childLayout=stackLayout;resizeParent=1;resizeParentMax=0;horizontal=0;startSize=20;horizontalStack=0;html=1;rounded=1;" parent="1" vertex="1">
                    <mxGeometry x="40" y="510" width="1070" height="250" as="geometry"/>
                </mxCell>
                <mxCell id="hDukkaT7l1Hp4GkBRoLi-3" value="People Ops" style="swimlane;startSize=20;horizontal=0;html=1;rounded=1;" parent="hDukkaT7l1Hp4GkBRoLi-1" vertex="1">
                    <mxGeometry x="20" width="1050" height="130" as="geometry"/>
                </mxCell>
                <mxCell id="hDukkaT7l1Hp4GkBRoLi-24" style="edgeStyle=orthogonalEdgeStyle;rounded=1;orthogonalLoop=1;jettySize=auto;html=1;entryX=0.021;entryY=0.486;entryDx=0;entryDy=0;entryPerimeter=0;" parent="hDukkaT7l1Hp4GkBRoLi-3" source="hDukkaT7l1Hp4GkBRoLi-18" target="hDukkaT7l1Hp4GkBRoLi-14" edge="1">
                    <mxGeometry relative="1" as="geometry"/>
                </mxCell>
                <mxCell id="hDukkaT7l1Hp4GkBRoLi-18" value="Notify leaving" style="points=[[0.145,0.145,0],[0.5,0,0],[0.855,0.145,0],[1,0.5,0],[0.855,0.855,0],[0.5,1,0],[0.145,0.855,0],[0,0.5,0]];shape=mxgraph.bpmn.event;html=1;verticalLabelPosition=bottom;labelBackgroundColor=#ffffff;verticalAlign=top;align=center;perimeter=ellipsePerimeter;outlineConnect=0;aspect=fixed;outline=standard;symbol=message;rounded=1;" parent="hDukkaT7l1Hp4GkBRoLi-3" vertex="1">
                    <mxGeometry x="80" y="30" width="50" height="50" as="geometry"/>
                </mxCell>
                <mxCell id="hDukkaT7l1Hp4GkBRoLi-30" style="edgeStyle=orthogonalEdgeStyle;rounded=1;orthogonalLoop=1;jettySize=auto;html=1;entryX=0;entryY=0.5;entryDx=0;entryDy=0;entryPerimeter=0;" parent="hDukkaT7l1Hp4GkBRoLi-3" source="hDukkaT7l1Hp4GkBRoLi-14" target="hDukkaT7l1Hp4GkBRoLi-27" edge="1">
                    <mxGeometry relative="1" as="geometry"/>
                </mxCell>
                <mxCell id="hDukkaT7l1Hp4GkBRoLi-14" value="Send &#10;confirmation" style="shape=mxgraph.bpmn.task;rectStyle=rounded;size=10;taskMarker=send;labelBackgroundColor=#ffffff;" parent="hDukkaT7l1Hp4GkBRoLi-3" vertex="1">
                    <mxGeometry x="180" y="25" width="100" height="60" as="geometry"/>
                </mxCell>
                <mxCell id="hDukkaT7l1Hp4GkBRoLi-36" style="edgeStyle=orthogonalEdgeStyle;rounded=1;orthogonalLoop=1;jettySize=auto;html=1;entryX=0;entryY=0.5;entryDx=0;entryDy=0;entryPerimeter=0;" parent="hDukkaT7l1Hp4GkBRoLi-3" source="hDukkaT7l1Hp4GkBRoLi-27" target="hDukkaT7l1Hp4GkBRoLi-42" edge="1">
                    <mxGeometry relative="1" as="geometry"/>
                </mxCell>
                <mxCell id="hDukkaT7l1Hp4GkBRoLi-27" value="Start Securing Knowledge" style="points=[[0.25,0,0],[0.5,0,0],[0.75,0,0],[1,0.25,0],[1,0.5,0],[1,0.75,0],[0.75,1,0],[0.5,1,0],[0.25,1,0],[0,0.75,0],[0,0.5,0],[0,0.25,0]];shape=mxgraph.bpmn.task;whiteSpace=wrap;rectStyle=rounded;size=10;html=1;container=1;expand=0;collapsible=0;taskMarker=abstract;rounded=1;" parent="hDukkaT7l1Hp4GkBRoLi-3" vertex="1">
                    <mxGeometry x="310" y="25" width="100" height="60" as="geometry"/>
                </mxCell>
                <mxCell id="hDukkaT7l1Hp4GkBRoLi-43" style="edgeStyle=orthogonalEdgeStyle;rounded=1;orthogonalLoop=1;jettySize=auto;html=1;" parent="hDukkaT7l1Hp4GkBRoLi-3" source="hDukkaT7l1Hp4GkBRoLi-42" target="hDukkaT7l1Hp4GkBRoLi-35" edge="1">
                    <mxGeometry relative="1" as="geometry"/>
                </mxCell>
                <mxCell id="hDukkaT7l1Hp4GkBRoLi-42" value="Understand the reason&lt;br&gt;(Exit interview)" style="points=[[0.25,0,0],[0.5,0,0],[0.75,0,0],[1,0.25,0],[1,0.5,0],[1,0.75,0],[0.75,1,0],[0.5,1,0],[0.25,1,0],[0,0.75,0],[0,0.5,0],[0,0.25,0]];shape=mxgraph.bpmn.task;whiteSpace=wrap;rectStyle=rounded;size=10;html=1;container=1;expand=0;collapsible=0;taskMarker=abstract;rounded=1;" parent="hDukkaT7l1Hp4GkBRoLi-3" vertex="1">
                    <mxGeometry x="440" y="25" width="105" height="60" as="geometry"/>
                </mxCell>
                <mxCell id="hDukkaT7l1Hp4GkBRoLi-45" style="edgeStyle=orthogonalEdgeStyle;rounded=1;orthogonalLoop=1;jettySize=auto;html=1;" parent="hDukkaT7l1Hp4GkBRoLi-3" source="hDukkaT7l1Hp4GkBRoLi-35" target="hDukkaT7l1Hp4GkBRoLi-44" edge="1">
                    <mxGeometry relative="1" as="geometry"/>
                </mxCell>
                <mxCell id="hDukkaT7l1Hp4GkBRoLi-35" value="Request individual's removal systems access" style="points=[[0.25,0,0],[0.5,0,0],[0.75,0,0],[1,0.25,0],[1,0.5,0],[1,0.75,0],[0.75,1,0],[0.5,1,0],[0.25,1,0],[0,0.75,0],[0,0.5,0],[0,0.25,0]];shape=mxgraph.bpmn.task;whiteSpace=wrap;rectStyle=rounded;size=10;html=1;container=1;expand=0;collapsible=0;taskMarker=abstract;rounded=1;" parent="hDukkaT7l1Hp4GkBRoLi-3" vertex="1">
                    <mxGeometry x="570" y="25" width="120" height="60" as="geometry"/>
                </mxCell>
                <mxCell id="hDukkaT7l1Hp4GkBRoLi-68" value="" style="edgeStyle=orthogonalEdgeStyle;rounded=1;orthogonalLoop=1;jettySize=auto;html=1;entryX=0;entryY=0.5;entryDx=0;entryDy=0;entryPerimeter=0;" parent="hDukkaT7l1Hp4GkBRoLi-3" source="hDukkaT7l1Hp4GkBRoLi-44" target="hDukkaT7l1Hp4GkBRoLi-70" edge="1">
                    <mxGeometry relative="1" as="geometry">
                        <mxPoint x="890" y="55" as="targetPoint"/>
                    </mxGeometry>
                </mxCell>
                <mxCell id="hDukkaT7l1Hp4GkBRoLi-44" value="Announce leaving in All Hands" style="points=[[0.25,0,0],[0.5,0,0],[0.75,0,0],[1,0.25,0],[1,0.5,0],[1,0.75,0],[0.75,1,0],[0.5,1,0],[0.25,1,0],[0,0.75,0],[0,0.5,0],[0,0.25,0]];shape=mxgraph.bpmn.task;whiteSpace=wrap;rectStyle=rounded;size=10;html=1;container=1;expand=0;collapsible=0;taskMarker=abstract;rounded=1;" parent="hDukkaT7l1Hp4GkBRoLi-3" vertex="1">
                    <mxGeometry x="723.62" y="25" width="105" height="60" as="geometry"/>
                </mxCell>
                <mxCell id="hDukkaT7l1Hp4GkBRoLi-55" value="" style="image;html=1;image=img/lib/atlassian/Jira_Logo.svg;rounded=1;aspect=fixed;" parent="hDukkaT7l1Hp4GkBRoLi-3" vertex="1">
                    <mxGeometry x="640" y="93.62" width="23.622" height="23.62" as="geometry"/>
                </mxCell>
                <mxCell id="hDukkaT7l1Hp4GkBRoLi-56" value="Jira ticket" style="text;html=1;strokeColor=none;fillColor=none;align=center;verticalAlign=middle;whiteSpace=wrap;rounded=0;" parent="hDukkaT7l1Hp4GkBRoLi-3" vertex="1">
                    <mxGeometry x="663.62" y="93.62" width="60" height="30" as="geometry"/>
                </mxCell>
                <mxCell id="hDukkaT7l1Hp4GkBRoLi-70" value="" style="points=[[0.145,0.145,0],[0.5,0,0],[0.855,0.145,0],[1,0.5,0],[0.855,0.855,0],[0.5,1,0],[0.145,0.855,0],[0,0.5,0]];shape=mxgraph.bpmn.event;html=1;verticalLabelPosition=bottom;labelBackgroundColor=#ffffff;verticalAlign=top;align=center;perimeter=ellipsePerimeter;outlineConnect=0;aspect=fixed;outline=end;symbol=message;rounded=1;" parent="hDukkaT7l1Hp4GkBRoLi-3" vertex="1">
                    <mxGeometry x="920" y="43.62" width="50" height="50" as="geometry"/>
                </mxCell>
                <mxCell id="hDukkaT7l1Hp4GkBRoLi-81" value="Removal process of systems access completed" style="text;html=1;align=center;verticalAlign=middle;whiteSpace=wrap;rounded=0;" parent="hDukkaT7l1Hp4GkBRoLi-3" vertex="1">
                    <mxGeometry x="840" y="10" width="150" height="30" as="geometry"/>
                </mxCell>
                <mxCell id="hDukkaT7l1Hp4GkBRoLi-4" value="DevOps" style="swimlane;startSize=20;horizontal=0;html=1;rounded=1;" parent="hDukkaT7l1Hp4GkBRoLi-1" vertex="1">
                    <mxGeometry x="20" y="130" width="1050" height="120" as="geometry"/>
                </mxCell>
                <mxCell id="hDukkaT7l1Hp4GkBRoLi-59" value="" style="edgeStyle=orthogonalEdgeStyle;rounded=1;orthogonalLoop=1;jettySize=auto;html=1;entryX=0;entryY=0.5;entryDx=0;entryDy=0;entryPerimeter=0;" parent="hDukkaT7l1Hp4GkBRoLi-4" source="hDukkaT7l1Hp4GkBRoLi-53" target="LDwRzjpOLMUeK4j8077h-1" edge="1">
                    <mxGeometry relative="1" as="geometry">
                        <mxPoint x="640" y="48" as="targetPoint"/>
                    </mxGeometry>
                </mxCell>
                <mxCell id="hDukkaT7l1Hp4GkBRoLi-53" value="Receive removal systems access notification" style="points=[[0.25,0,0],[0.5,0,0],[0.75,0,0],[1,0.25,0],[1,0.5,0],[1,0.75,0],[0.75,1,0],[0.5,1,0],[0.25,1,0],[0,0.75,0],[0,0.5,0],[0,0.25,0]];shape=mxgraph.bpmn.task;whiteSpace=wrap;rectStyle=rounded;size=10;html=1;container=1;expand=0;collapsible=0;taskMarker=abstract;rounded=1;" parent="hDukkaT7l1Hp4GkBRoLi-4" vertex="1">
                    <mxGeometry x="410" y="18" width="120" height="60" as="geometry"/>
                </mxCell>
                <mxCell id="hDukkaT7l1Hp4GkBRoLi-65" value="" style="edgeStyle=orthogonalEdgeStyle;rounded=1;orthogonalLoop=1;jettySize=auto;html=1;exitX=1;exitY=0.5;exitDx=0;exitDy=0;exitPerimeter=0;" parent="hDukkaT7l1Hp4GkBRoLi-4" source="LDwRzjpOLMUeK4j8077h-1" target="hDukkaT7l1Hp4GkBRoLi-64" edge="1">
                    <mxGeometry relative="1" as="geometry">
                        <mxPoint x="760" y="48" as="sourcePoint"/>
                    </mxGeometry>
                </mxCell>
                <mxCell id="hDukkaT7l1Hp4GkBRoLi-64" value="Close Jira ticket to notify process completion" style="whiteSpace=wrap;html=1;rounded=1;" parent="hDukkaT7l1Hp4GkBRoLi-4" vertex="1">
                    <mxGeometry x="840" y="18" width="170" height="60" as="geometry"/>
                </mxCell>
                <mxCell id="LDwRzjpOLMUeK4j8077h-1" value="Run tool access removal process" style="points=[[0.25,0,0],[0.5,0,0],[0.75,0,0],[1,0.25,0],[1,0.5,0],[1,0.75,0],[0.75,1,0],[0.5,1,0],[0.25,1,0],[0,0.75,0],[0,0.5,0],[0,0.25,0]];shape=mxgraph.bpmn.task;whiteSpace=wrap;rectStyle=rounded;size=10;html=1;taskMarker=manual;isLoopSub=1;" parent="hDukkaT7l1Hp4GkBRoLi-4" vertex="1">
                    <mxGeometry x="620" y="8" width="120" height="80" as="geometry"/>
                </mxCell>
                <mxCell id="hDukkaT7l1Hp4GkBRoLi-54" style="edgeStyle=orthogonalEdgeStyle;rounded=1;orthogonalLoop=1;jettySize=auto;html=1;entryX=0.5;entryY=0;entryDx=0;entryDy=0;entryPerimeter=0;dashed=1;endArrow=block;endFill=0;" parent="hDukkaT7l1Hp4GkBRoLi-1" source="hDukkaT7l1Hp4GkBRoLi-35" target="hDukkaT7l1Hp4GkBRoLi-53" edge="1">
                    <mxGeometry relative="1" as="geometry">
                        <Array as="points">
                            <mxPoint x="650" y="110"/>
                            <mxPoint x="490" y="110"/>
                        </Array>
                    </mxGeometry>
                </mxCell>
                <mxCell id="hDukkaT7l1Hp4GkBRoLi-69" style="edgeStyle=orthogonalEdgeStyle;rounded=1;orthogonalLoop=1;jettySize=auto;html=1;dashed=1;endArrow=block;endFill=0;exitX=0.174;exitY=0.017;exitDx=0;exitDy=0;exitPerimeter=0;" parent="hDukkaT7l1Hp4GkBRoLi-1" source="hDukkaT7l1Hp4GkBRoLi-64" target="hDukkaT7l1Hp4GkBRoLi-70" edge="1">
                    <mxGeometry relative="1" as="geometry">
                        <mxPoint x="965" y="85" as="targetPoint"/>
                    </mxGeometry>
                </mxCell>
                <mxCell id="hDukkaT7l1Hp4GkBRoLi-5" value="&lt;div&gt;Employee&lt;/div&gt;" style="swimlane;startSize=20;horizontal=0;html=1;whiteSpace=wrap;rounded=1;" parent="1" vertex="1">
                    <mxGeometry x="40" y="175" width="1070" height="120" as="geometry"/>
                </mxCell>
                <mxCell id="hDukkaT7l1Hp4GkBRoLi-9" value="" style="edgeStyle=orthogonalEdgeStyle;orthogonalLoop=1;jettySize=auto;html=1;" parent="hDukkaT7l1Hp4GkBRoLi-5" source="hDukkaT7l1Hp4GkBRoLi-6" target="hDukkaT7l1Hp4GkBRoLi-8" edge="1">
                    <mxGeometry relative="1" as="geometry"/>
                </mxCell>
                <mxCell id="hDukkaT7l1Hp4GkBRoLi-6" value="Start" style="points=[[0.145,0.145,0],[0.5,0,0],[0.855,0.145,0],[1,0.5,0],[0.855,0.855,0],[0.5,1,0],[0.145,0.855,0],[0,0.5,0]];shape=mxgraph.bpmn.event;html=1;verticalLabelPosition=bottom;labelBackgroundColor=#ffffff;verticalAlign=top;align=center;perimeter=ellipsePerimeter;outlineConnect=0;aspect=fixed;outline=standard;symbol=general;rounded=1;" parent="hDukkaT7l1Hp4GkBRoLi-5" vertex="1">
                    <mxGeometry x="50" y="30" width="50" height="50" as="geometry"/>
                </mxCell>
                <mxCell id="hDukkaT7l1Hp4GkBRoLi-17" style="edgeStyle=orthogonalEdgeStyle;rounded=1;orthogonalLoop=1;jettySize=auto;html=1;" parent="hDukkaT7l1Hp4GkBRoLi-5" source="hDukkaT7l1Hp4GkBRoLi-8" target="hDukkaT7l1Hp4GkBRoLi-16" edge="1">
                    <mxGeometry relative="1" as="geometry"/>
                </mxCell>
                <mxCell id="hDukkaT7l1Hp4GkBRoLi-8" value="Notify leaving" style="shape=mxgraph.bpmn.task;rectStyle=rounded;size=10;taskMarker=send;labelBackgroundColor=#ffffff;" parent="hDukkaT7l1Hp4GkBRoLi-5" vertex="1">
                    <mxGeometry x="130" y="25" width="100" height="60" as="geometry"/>
                </mxCell>
                <mxCell id="hDukkaT7l1Hp4GkBRoLi-26" style="edgeStyle=orthogonalEdgeStyle;rounded=1;orthogonalLoop=1;jettySize=auto;html=1;entryX=0;entryY=0.5;entryDx=0;entryDy=0;entryPerimeter=0;" parent="hDukkaT7l1Hp4GkBRoLi-5" source="hDukkaT7l1Hp4GkBRoLi-16" target="hDukkaT7l1Hp4GkBRoLi-12" edge="1">
                    <mxGeometry relative="1" as="geometry"/>
                </mxCell>
                <mxCell id="hDukkaT7l1Hp4GkBRoLi-16" value="" style="points=[[0.145,0.145,0],[0.5,0,0],[0.855,0.145,0],[1,0.5,0],[0.855,0.855,0],[0.5,1,0],[0.145,0.855,0],[0,0.5,0]];shape=mxgraph.bpmn.event;html=1;verticalLabelPosition=bottom;labelBackgroundColor=#ffffff;verticalAlign=top;align=center;perimeter=ellipsePerimeter;outlineConnect=0;aspect=fixed;outline=standard;symbol=timer;rounded=1;" parent="hDukkaT7l1Hp4GkBRoLi-5" vertex="1">
                    <mxGeometry x="310" y="30" width="50" height="50" as="geometry"/>
                </mxCell>
                <mxCell id="hDukkaT7l1Hp4GkBRoLi-49" style="edgeStyle=orthogonalEdgeStyle;rounded=1;orthogonalLoop=1;jettySize=auto;html=1;" parent="hDukkaT7l1Hp4GkBRoLi-5" source="hDukkaT7l1Hp4GkBRoLi-12" target="hDukkaT7l1Hp4GkBRoLi-8" edge="1">
                    <mxGeometry relative="1" as="geometry">
                        <Array as="points">
                            <mxPoint x="455" y="-20"/>
                            <mxPoint x="180" y="-20"/>
                        </Array>
                    </mxGeometry>
                </mxCell>
                <mxCell id="hDukkaT7l1Hp4GkBRoLi-51" value="" style="edgeStyle=orthogonalEdgeStyle;rounded=1;orthogonalLoop=1;jettySize=auto;html=1;" parent="hDukkaT7l1Hp4GkBRoLi-5" source="hDukkaT7l1Hp4GkBRoLi-12" target="hDukkaT7l1Hp4GkBRoLi-50" edge="1">
                    <mxGeometry relative="1" as="geometry"/>
                </mxCell>
                <mxCell id="hDukkaT7l1Hp4GkBRoLi-12" value="Confirmation received" style="points=[[0.25,0.25,0],[0.5,0,0],[0.75,0.25,0],[1,0.5,0],[0.75,0.75,0],[0.5,1,0],[0.25,0.75,0],[0,0.5,0]];shape=mxgraph.bpmn.gateway2;html=1;verticalLabelPosition=bottom;labelBackgroundColor=#ffffff;verticalAlign=top;align=center;perimeter=rhombusPerimeter;outlineConnect=0;outline=none;symbol=none;gwType=exclusive;rounded=1;" parent="hDukkaT7l1Hp4GkBRoLi-5" vertex="1">
                    <mxGeometry x="430" y="30" width="50" height="50" as="geometry"/>
                </mxCell>
                <mxCell id="hDukkaT7l1Hp4GkBRoLi-76" style="edgeStyle=orthogonalEdgeStyle;rounded=1;orthogonalLoop=1;jettySize=auto;html=1;entryX=0;entryY=0.5;entryDx=0;entryDy=0;entryPerimeter=0;" parent="hDukkaT7l1Hp4GkBRoLi-5" source="hDukkaT7l1Hp4GkBRoLi-50" target="hDukkaT7l1Hp4GkBRoLi-66" edge="1">
                    <mxGeometry relative="1" as="geometry"/>
                </mxCell>
                <mxCell id="hDukkaT7l1Hp4GkBRoLi-50" value="Support handover" style="whiteSpace=wrap;html=1;verticalAlign=top;labelBackgroundColor=#ffffff;rounded=1;" parent="hDukkaT7l1Hp4GkBRoLi-5" vertex="1">
                    <mxGeometry x="555" y="25" width="120" height="60" as="geometry"/>
                </mxCell>
                <mxCell id="hDukkaT7l1Hp4GkBRoLi-66" value="End" style="points=[[0.145,0.145,0],[0.5,0,0],[0.855,0.145,0],[1,0.5,0],[0.855,0.855,0],[0.5,1,0],[0.145,0.855,0],[0,0.5,0]];shape=mxgraph.bpmn.event;html=1;verticalLabelPosition=bottom;labelBackgroundColor=#ffffff;verticalAlign=top;align=center;perimeter=ellipsePerimeter;outlineConnect=0;aspect=fixed;outline=end;symbol=terminate2;rounded=1;" parent="hDukkaT7l1Hp4GkBRoLi-5" vertex="1">
                    <mxGeometry x="890" y="30" width="50" height="50" as="geometry"/>
                </mxCell>
                <mxCell id="hDukkaT7l1Hp4GkBRoLi-20" style="edgeStyle=orthogonalEdgeStyle;rounded=1;orthogonalLoop=1;jettySize=auto;html=1;dashed=1;endArrow=blockThin;endFill=0;exitX=0.194;exitY=1.011;exitDx=0;exitDy=0;exitPerimeter=0;entryX=0.5;entryY=0;entryDx=0;entryDy=0;entryPerimeter=0;" parent="1" source="hDukkaT7l1Hp4GkBRoLi-8" target="hDukkaT7l1Hp4GkBRoLi-18" edge="1">
                    <mxGeometry relative="1" as="geometry">
                        <Array as="points">
                            <mxPoint x="189" y="320"/>
                            <mxPoint x="165" y="320"/>
                        </Array>
                    </mxGeometry>
                </mxCell>
                <mxCell id="hDukkaT7l1Hp4GkBRoLi-22" style="rounded=1;orthogonalLoop=1;jettySize=auto;html=1;dashed=1;endArrow=block;endFill=0;edgeStyle=orthogonalEdgeStyle;exitX=0.75;exitY=1.025;exitDx=0;exitDy=0;exitPerimeter=0;" parent="1" source="hDukkaT7l1Hp4GkBRoLi-8" target="hDukkaT7l1Hp4GkBRoLi-21" edge="1">
                    <mxGeometry relative="1" as="geometry">
                        <mxPoint x="220" y="237" as="sourcePoint"/>
                        <Array as="points">
                            <mxPoint x="245" y="340"/>
                            <mxPoint x="245" y="340"/>
                        </Array>
                    </mxGeometry>
                </mxCell>
                <mxCell id="hDukkaT7l1Hp4GkBRoLi-25" style="edgeStyle=orthogonalEdgeStyle;rounded=1;orthogonalLoop=1;jettySize=auto;html=1;dashed=1;endArrow=block;endFill=0;" parent="1" source="hDukkaT7l1Hp4GkBRoLi-14" target="hDukkaT7l1Hp4GkBRoLi-16" edge="1">
                    <mxGeometry relative="1" as="geometry">
                        <Array as="points">
                            <mxPoint x="300" y="320"/>
                            <mxPoint x="375" y="320"/>
                        </Array>
                    </mxGeometry>
                </mxCell>
                <mxCell id="hDukkaT7l1Hp4GkBRoLi-31" value="" style="shape=note;whiteSpace=wrap;html=1;backgroundOutline=1;darkOpacity=0.05;rounded=1;size=14;" parent="1" vertex="1">
                    <mxGeometry x="390" y="300" width="23.622" height="31.496" as="geometry"/>
                </mxCell>
                <mxCell id="hDukkaT7l1Hp4GkBRoLi-34" value="Termination agreement" style="text;html=1;strokeColor=none;fillColor=none;align=center;verticalAlign=middle;whiteSpace=wrap;rounded=0;" parent="1" vertex="1">
                    <mxGeometry x="420" y="301.5" width="60" height="30" as="geometry"/>
                </mxCell>
                <mxCell id="hDukkaT7l1Hp4GkBRoLi-2" value="Employee Manager" style="swimlane;startSize=20;horizontal=0;html=1;rounded=1;" parent="1" vertex="1">
                    <mxGeometry x="40" y="350" width="1070" height="120" as="geometry">
                        <mxRectangle x="20" width="990" height="30" as="alternateBounds"/>
                    </mxGeometry>
                </mxCell>
                <mxCell id="hDukkaT7l1Hp4GkBRoLi-47" style="edgeStyle=orthogonalEdgeStyle;rounded=1;orthogonalLoop=1;jettySize=auto;html=1;" parent="hDukkaT7l1Hp4GkBRoLi-2" source="hDukkaT7l1Hp4GkBRoLi-21" target="hDukkaT7l1Hp4GkBRoLi-46" edge="1">
                    <mxGeometry relative="1" as="geometry"/>
                </mxCell>
                <mxCell id="hDukkaT7l1Hp4GkBRoLi-21" value="Notify leaving" style="points=[[0.145,0.145,0],[0.5,0,0],[0.855,0.145,0],[1,0.5,0],[0.855,0.855,0],[0.5,1,0],[0.145,0.855,0],[0,0.5,0]];shape=mxgraph.bpmn.event;html=1;verticalLabelPosition=bottom;labelBackgroundColor=#ffffff;verticalAlign=top;align=center;perimeter=ellipsePerimeter;outlineConnect=0;aspect=fixed;outline=standard;symbol=message;rounded=1;" parent="hDukkaT7l1Hp4GkBRoLi-2" vertex="1">
                    <mxGeometry x="180" y="29" width="50" height="50" as="geometry"/>
                </mxCell>
                <mxCell id="hDukkaT7l1Hp4GkBRoLi-75" style="edgeStyle=orthogonalEdgeStyle;rounded=1;orthogonalLoop=1;jettySize=auto;html=1;entryX=0;entryY=0.5;entryDx=0;entryDy=0;entryPerimeter=0;" parent="hDukkaT7l1Hp4GkBRoLi-2" source="hDukkaT7l1Hp4GkBRoLi-46" target="hDukkaT7l1Hp4GkBRoLi-73" edge="1">
                    <mxGeometry relative="1" as="geometry"/>
                </mxCell>
                <mxCell id="hDukkaT7l1Hp4GkBRoLi-46" value="Securing Knowledge&lt;br&gt;(Prepare handover, checklist, etc)" style="points=[[0.25,0,0],[0.5,0,0],[0.75,0,0],[1,0.25,0],[1,0.5,0],[1,0.75,0],[0.75,1,0],[0.5,1,0],[0.25,1,0],[0,0.75,0],[0,0.5,0],[0,0.25,0]];shape=mxgraph.bpmn.task;whiteSpace=wrap;rectStyle=rounded;size=10;html=1;container=1;expand=0;collapsible=0;taskMarker=abstract;rounded=1;" parent="hDukkaT7l1Hp4GkBRoLi-2" vertex="1">
                    <mxGeometry x="480" y="24" width="140" height="60" as="geometry"/>
                </mxCell>
                <mxCell id="hDukkaT7l1Hp4GkBRoLi-73" value="" style="points=[[0.145,0.145,0],[0.5,0,0],[0.855,0.145,0],[1,0.5,0],[0.855,0.855,0],[0.5,1,0],[0.145,0.855,0],[0,0.5,0]];shape=mxgraph.bpmn.event;html=1;verticalLabelPosition=bottom;labelBackgroundColor=#ffffff;verticalAlign=top;align=center;perimeter=ellipsePerimeter;outlineConnect=0;aspect=fixed;outline=end;symbol=message;rounded=1;" parent="hDukkaT7l1Hp4GkBRoLi-2" vertex="1">
                    <mxGeometry x="1000" y="29" width="50" height="50" as="geometry"/>
                </mxCell>
                <mxCell id="hDukkaT7l1Hp4GkBRoLi-77" value="Removal process of systems access completed" style="text;html=1;strokeColor=none;fillColor=none;align=center;verticalAlign=middle;whiteSpace=wrap;rounded=0;" parent="hDukkaT7l1Hp4GkBRoLi-2" vertex="1">
                    <mxGeometry x="840" y="14" width="150" height="30" as="geometry"/>
                </mxCell>
                <mxCell id="hDukkaT7l1Hp4GkBRoLi-48" style="edgeStyle=orthogonalEdgeStyle;rounded=1;orthogonalLoop=1;jettySize=auto;html=1;entryX=0.452;entryY=1.028;entryDx=0;entryDy=0;entryPerimeter=0;dashed=1;endArrow=block;endFill=0;" parent="1" source="hDukkaT7l1Hp4GkBRoLi-27" target="hDukkaT7l1Hp4GkBRoLi-46" edge="1">
                    <mxGeometry relative="1" as="geometry">
                        <Array as="points">
                            <mxPoint x="443" y="490"/>
                            <mxPoint x="583" y="490"/>
                        </Array>
                    </mxGeometry>
                </mxCell>
                <mxCell id="hDukkaT7l1Hp4GkBRoLi-52" style="edgeStyle=orthogonalEdgeStyle;rounded=1;orthogonalLoop=1;jettySize=auto;html=1;endArrow=block;endFill=0;dashed=1;startArrow=block;startFill=0;" parent="1" source="hDukkaT7l1Hp4GkBRoLi-46" target="hDukkaT7l1Hp4GkBRoLi-50" edge="1">
                    <mxGeometry relative="1" as="geometry">
                        <Array as="points">
                            <mxPoint x="590" y="320"/>
                            <mxPoint x="655" y="320"/>
                        </Array>
                    </mxGeometry>
                </mxCell>
                <mxCell id="hDukkaT7l1Hp4GkBRoLi-80" style="edgeStyle=orthogonalEdgeStyle;rounded=1;orthogonalLoop=1;jettySize=auto;html=1;dashed=1;endArrow=block;endFill=0;exitX=0.868;exitY=0.031;exitDx=0;exitDy=0;exitPerimeter=0;entryX=0.5;entryY=1;entryDx=0;entryDy=0;entryPerimeter=0;" parent="1" source="hDukkaT7l1Hp4GkBRoLi-64" target="hDukkaT7l1Hp4GkBRoLi-73" edge="1">
                    <mxGeometry relative="1" as="geometry">
                        <mxPoint x="1026" y="619" as="sourcePoint"/>
                        <mxPoint x="1050" y="550" as="targetPoint"/>
                    </mxGeometry>
                </mxCell>
                <mxCell id="aD8TksumE34_jyx7WvKi-1" value="Offboarding" style="text;strokeColor=none;fillColor=none;html=1;fontSize=24;fontStyle=1;verticalAlign=middle;align=left;" parent="1" vertex="1">
                    <mxGeometry x="40" y="40" width="230" height="40" as="geometry"/>
                </mxCell>
                <mxCell id="aD8TksumE34_jyx7WvKi-2" value="v1.0.0" style="text;html=1;strokeColor=none;fillColor=none;align=left;verticalAlign=middle;whiteSpace=wrap;rounded=0;" parent="1" vertex="1">
                    <mxGeometry x="40" y="80" width="60" height="30" as="geometry"/>
                </mxCell>
            </root>
        </mxGraphModel>
    </diagram>
    <diagram name="Onboarding: 1 - Prior first day" id="3lkF5vliwZrt1aq8uy8R">
        <mxGraphModel dx="1386" dy="665" grid="1" gridSize="10" guides="1" tooltips="1" connect="1" arrows="1" fold="1" page="1" pageScale="1" pageWidth="1169" pageHeight="827" math="0" shadow="0">
            <root>
                <mxCell id="TQgzKQtOKjQi2imn_hHr-0"/>
                <mxCell id="TQgzKQtOKjQi2imn_hHr-1" parent="TQgzKQtOKjQi2imn_hHr-0"/>
                <mxCell id="TQgzKQtOKjQi2imn_hHr-2" value="Eagle Ops" style="swimlane;childLayout=stackLayout;resizeParent=1;resizeParentMax=0;horizontal=0;startSize=20;horizontalStack=0;html=1;rounded=1;" parent="TQgzKQtOKjQi2imn_hHr-1" vertex="1">
                    <mxGeometry x="40" y="510" width="1070" height="250" as="geometry"/>
                </mxCell>
                <mxCell id="TQgzKQtOKjQi2imn_hHr-3" value="People Ops" style="swimlane;startSize=20;horizontal=0;html=1;rounded=1;" parent="TQgzKQtOKjQi2imn_hHr-2" vertex="1">
                    <mxGeometry x="20" width="1050" height="130" as="geometry"/>
                </mxCell>
                <mxCell id="TQgzKQtOKjQi2imn_hHr-8" style="edgeStyle=orthogonalEdgeStyle;rounded=1;orthogonalLoop=1;jettySize=auto;html=1;entryX=0;entryY=0.5;entryDx=0;entryDy=0;entryPerimeter=0;" parent="TQgzKQtOKjQi2imn_hHr-3" source="TQgzKQtOKjQi2imn_hHr-9" target="TQgzKQtOKjQi2imn_hHr-11" edge="1">
                    <mxGeometry relative="1" as="geometry"/>
                </mxCell>
                <mxCell id="TQgzKQtOKjQi2imn_hHr-9" value="Request systems access for new hire (Google Form)" style="points=[[0.25,0,0],[0.5,0,0],[0.75,0,0],[1,0.25,0],[1,0.5,0],[1,0.75,0],[0.75,1,0],[0.5,1,0],[0.25,1,0],[0,0.75,0],[0,0.5,0],[0,0.25,0]];shape=mxgraph.bpmn.task;whiteSpace=wrap;rectStyle=rounded;size=10;html=1;container=1;expand=0;collapsible=0;taskMarker=abstract;rounded=1;" parent="TQgzKQtOKjQi2imn_hHr-3" vertex="1">
                    <mxGeometry x="300" y="30" width="120" height="60" as="geometry"/>
                </mxCell>
                <mxCell id="l6jrSMq1p4zG9x2vz-js-15" style="edgeStyle=none;html=1;" parent="TQgzKQtOKjQi2imn_hHr-3" source="TQgzKQtOKjQi2imn_hHr-11" target="TQgzKQtOKjQi2imn_hHr-15" edge="1">
                    <mxGeometry relative="1" as="geometry"/>
                </mxCell>
                <mxCell id="TQgzKQtOKjQi2imn_hHr-11" value="Assign new hire a Buddy" style="points=[[0.25,0,0],[0.5,0,0],[0.75,0,0],[1,0.25,0],[1,0.5,0],[1,0.75,0],[0.75,1,0],[0.5,1,0],[0.25,1,0],[0,0.75,0],[0,0.5,0],[0,0.25,0]];shape=mxgraph.bpmn.task;whiteSpace=wrap;rectStyle=rounded;size=10;html=1;container=1;expand=0;collapsible=0;taskMarker=abstract;rounded=1;" parent="TQgzKQtOKjQi2imn_hHr-3" vertex="1">
                    <mxGeometry x="459" y="30" width="105" height="60" as="geometry"/>
                </mxCell>
                <mxCell id="l6jrSMq1p4zG9x2vz-js-18" value="" style="edgeStyle=none;html=1;entryX=0;entryY=0.5;entryDx=0;entryDy=0;entryPerimeter=0;" parent="TQgzKQtOKjQi2imn_hHr-3" source="TQgzKQtOKjQi2imn_hHr-15" target="l6jrSMq1p4zG9x2vz-js-20" edge="1">
                    <mxGeometry relative="1" as="geometry">
                        <mxPoint x="820" y="60" as="targetPoint"/>
                    </mxGeometry>
                </mxCell>
                <mxCell id="TQgzKQtOKjQi2imn_hHr-15" value="Contact to new hire to confirm that systems access was granted" style="points=[[0.25,0,0],[0.5,0,0],[0.75,0,0],[1,0.25,0],[1,0.5,0],[1,0.75,0],[0.75,1,0],[0.5,1,0],[0.25,1,0],[0,0.75,0],[0,0.5,0],[0,0.25,0]];shape=mxgraph.bpmn.task;whiteSpace=wrap;rectStyle=rounded;size=10;html=1;container=1;expand=0;collapsible=0;taskMarker=abstract;rounded=1;" parent="TQgzKQtOKjQi2imn_hHr-3" vertex="1">
                    <mxGeometry x="610" y="30" width="130" height="60" as="geometry"/>
                </mxCell>
                <mxCell id="TQgzKQtOKjQi2imn_hHr-17" value="Jira ticket" style="text;html=1;strokeColor=none;fillColor=none;align=center;verticalAlign=middle;whiteSpace=wrap;rounded=0;" parent="TQgzKQtOKjQi2imn_hHr-3" vertex="1">
                    <mxGeometry x="360" y="134" width="60" height="30" as="geometry"/>
                </mxCell>
                <mxCell id="l6jrSMq1p4zG9x2vz-js-1" value="" style="edgeStyle=none;html=1;" parent="TQgzKQtOKjQi2imn_hHr-3" source="TQgzKQtOKjQi2imn_hHr-30" target="l6jrSMq1p4zG9x2vz-js-0" edge="1">
                    <mxGeometry relative="1" as="geometry"/>
                </mxCell>
                <mxCell id="TQgzKQtOKjQi2imn_hHr-30" value="Start" style="points=[[0.145,0.145,0],[0.5,0,0],[0.855,0.145,0],[1,0.5,0],[0.855,0.855,0],[0.5,1,0],[0.145,0.855,0],[0,0.5,0]];shape=mxgraph.bpmn.event;html=1;verticalLabelPosition=bottom;labelBackgroundColor=#ffffff;verticalAlign=top;align=center;perimeter=ellipsePerimeter;outlineConnect=0;aspect=fixed;outline=standard;symbol=general;rounded=1;" parent="TQgzKQtOKjQi2imn_hHr-3" vertex="1">
                    <mxGeometry x="50" y="35" width="50" height="50" as="geometry"/>
                </mxCell>
                <mxCell id="l6jrSMq1p4zG9x2vz-js-7" style="edgeStyle=none;html=1;" parent="TQgzKQtOKjQi2imn_hHr-3" source="l6jrSMq1p4zG9x2vz-js-0" target="TQgzKQtOKjQi2imn_hHr-9" edge="1">
                    <mxGeometry relative="1" as="geometry"/>
                </mxCell>
                <mxCell id="l6jrSMq1p4zG9x2vz-js-0" value="Enter new hire's information in HRIS (BambooHR)" style="whiteSpace=wrap;html=1;verticalAlign=top;labelBackgroundColor=#ffffff;rounded=1;" parent="TQgzKQtOKjQi2imn_hHr-3" vertex="1">
                    <mxGeometry x="145" y="30" width="120" height="60" as="geometry"/>
                </mxCell>
                <mxCell id="l6jrSMq1p4zG9x2vz-js-28" style="edgeStyle=orthogonalEdgeStyle;html=1;" parent="TQgzKQtOKjQi2imn_hHr-3" source="l6jrSMq1p4zG9x2vz-js-20" target="TQgzKQtOKjQi2imn_hHr-40" edge="1">
                    <mxGeometry relative="1" as="geometry"/>
                </mxCell>
                <mxCell id="l6jrSMq1p4zG9x2vz-js-20" value="Add new hired to relevant calendar and mail groups" style="points=[[0.25,0,0],[0.5,0,0],[0.75,0,0],[1,0.25,0],[1,0.5,0],[1,0.75,0],[0.75,1,0],[0.5,1,0],[0.25,1,0],[0,0.75,0],[0,0.5,0],[0,0.25,0]];shape=mxgraph.bpmn.task;whiteSpace=wrap;rectStyle=rounded;size=10;html=1;container=1;expand=0;collapsible=0;taskMarker=abstract;rounded=1;" parent="TQgzKQtOKjQi2imn_hHr-3" vertex="1">
                    <mxGeometry x="790" y="30" width="130" height="60" as="geometry"/>
                </mxCell>
                <mxCell id="TQgzKQtOKjQi2imn_hHr-40" value="End" style="points=[[0.145,0.145,0],[0.5,0,0],[0.855,0.145,0],[1,0.5,0],[0.855,0.855,0],[0.5,1,0],[0.145,0.855,0],[0,0.5,0]];shape=mxgraph.bpmn.event;html=1;verticalLabelPosition=bottom;labelBackgroundColor=#ffffff;verticalAlign=top;align=center;perimeter=ellipsePerimeter;outlineConnect=0;aspect=fixed;outline=end;symbol=terminate2;rounded=1;" parent="TQgzKQtOKjQi2imn_hHr-3" vertex="1">
                    <mxGeometry x="960" y="35" width="50" height="50" as="geometry"/>
                </mxCell>
                <mxCell id="TQgzKQtOKjQi2imn_hHr-20" value="DevOps" style="swimlane;startSize=20;horizontal=0;html=1;rounded=1;" parent="TQgzKQtOKjQi2imn_hHr-2" vertex="1">
                    <mxGeometry x="20" y="130" width="1050" height="120" as="geometry"/>
                </mxCell>
                <mxCell id="l6jrSMq1p4zG9x2vz-js-11" style="edgeStyle=none;html=1;" parent="TQgzKQtOKjQi2imn_hHr-20" source="TQgzKQtOKjQi2imn_hHr-22" target="TQgzKQtOKjQi2imn_hHr-34" edge="1">
                    <mxGeometry relative="1" as="geometry"/>
                </mxCell>
                <mxCell id="TQgzKQtOKjQi2imn_hHr-22" value="Receive request systems access notification" style="points=[[0.25,0,0],[0.5,0,0],[0.75,0,0],[1,0.25,0],[1,0.5,0],[1,0.75,0],[0.75,1,0],[0.5,1,0],[0.25,1,0],[0,0.75,0],[0,0.5,0],[0,0.25,0]];shape=mxgraph.bpmn.task;whiteSpace=wrap;rectStyle=rounded;size=10;html=1;container=1;expand=0;collapsible=0;taskMarker=abstract;rounded=1;" parent="TQgzKQtOKjQi2imn_hHr-20" vertex="1">
                    <mxGeometry x="300" y="37" width="120" height="60" as="geometry"/>
                </mxCell>
                <mxCell id="TQgzKQtOKjQi2imn_hHr-25" value="Close Jira ticket to notify process completion" style="whiteSpace=wrap;html=1;rounded=1;" parent="TQgzKQtOKjQi2imn_hHr-20" vertex="1">
                    <mxGeometry x="680" y="37" width="140" height="60" as="geometry"/>
                </mxCell>
                <mxCell id="l6jrSMq1p4zG9x2vz-js-13" style="edgeStyle=none;html=1;" parent="TQgzKQtOKjQi2imn_hHr-20" source="l6jrSMq1p4zG9x2vz-js-8" target="TQgzKQtOKjQi2imn_hHr-25" edge="1">
                    <mxGeometry relative="1" as="geometry"/>
                </mxCell>
                <mxCell id="l6jrSMq1p4zG9x2vz-js-8" value="Run systems access granting prrocess" style="points=[[0.25,0,0],[0.5,0,0],[0.75,0,0],[1,0.25,0],[1,0.5,0],[1,0.75,0],[0.75,1,0],[0.5,1,0],[0.25,1,0],[0,0.75,0],[0,0.5,0],[0,0.25,0]];shape=mxgraph.bpmn.task;whiteSpace=wrap;rectStyle=rounded;size=10;html=1;container=1;expand=0;collapsible=0;taskMarker=abstract;rounded=1;" parent="TQgzKQtOKjQi2imn_hHr-20" vertex="1">
                    <mxGeometry x="525" y="37" width="120" height="60" as="geometry"/>
                </mxCell>
                <mxCell id="l6jrSMq1p4zG9x2vz-js-12" style="edgeStyle=none;html=1;" parent="TQgzKQtOKjQi2imn_hHr-20" source="TQgzKQtOKjQi2imn_hHr-34" target="l6jrSMq1p4zG9x2vz-js-8" edge="1">
                    <mxGeometry relative="1" as="geometry"/>
                </mxCell>
                <mxCell id="TQgzKQtOKjQi2imn_hHr-34" value="" style="points=[[0.145,0.145,0],[0.5,0,0],[0.855,0.145,0],[1,0.5,0],[0.855,0.855,0],[0.5,1,0],[0.145,0.855,0],[0,0.5,0]];shape=mxgraph.bpmn.event;html=1;verticalLabelPosition=bottom;labelBackgroundColor=#ffffff;verticalAlign=top;align=center;perimeter=ellipsePerimeter;outlineConnect=0;aspect=fixed;outline=standard;symbol=timer;rounded=1;" parent="TQgzKQtOKjQi2imn_hHr-20" vertex="1">
                    <mxGeometry x="450" y="42" width="50" height="50" as="geometry"/>
                </mxCell>
                <mxCell id="l6jrSMq1p4zG9x2vz-js-25" value="" style="html=1;verticalLabelPosition=bottom;align=center;labelBackgroundColor=#ffffff;verticalAlign=top;strokeWidth=2;strokeColor=#0080F0;shadow=0;dashed=0;shape=mxgraph.ios7.icons.mail;" parent="TQgzKQtOKjQi2imn_hHr-20" vertex="1">
                    <mxGeometry x="714" y="11" width="30" height="16.5" as="geometry"/>
                </mxCell>
                <mxCell id="l6jrSMq1p4zG9x2vz-js-26" value="Confirmation" style="text;html=1;strokeColor=none;fillColor=none;align=center;verticalAlign=middle;whiteSpace=wrap;rounded=0;" parent="TQgzKQtOKjQi2imn_hHr-20" vertex="1">
                    <mxGeometry x="760" y="4.25" width="60" height="30" as="geometry"/>
                </mxCell>
                <mxCell id="TQgzKQtOKjQi2imn_hHr-16" value="" style="image;html=1;image=img/lib/atlassian/Jira_Logo.svg;rounded=1;aspect=fixed;" parent="TQgzKQtOKjQi2imn_hHr-20" vertex="1">
                    <mxGeometry x="330" y="7.439999999999998" width="23.622" height="23.62" as="geometry"/>
                </mxCell>
                <mxCell id="l6jrSMq1p4zG9x2vz-js-6" style="edgeStyle=none;html=1;" parent="TQgzKQtOKjQi2imn_hHr-2" source="TQgzKQtOKjQi2imn_hHr-9" target="TQgzKQtOKjQi2imn_hHr-22" edge="1">
                    <mxGeometry relative="1" as="geometry"/>
                </mxCell>
                <mxCell id="TQgzKQtOKjQi2imn_hHr-28" value="&lt;div&gt;New Hire&lt;/div&gt;" style="swimlane;startSize=20;horizontal=0;html=1;whiteSpace=wrap;rounded=1;" parent="TQgzKQtOKjQi2imn_hHr-1" vertex="1">
                    <mxGeometry x="40" y="188" width="1070" height="120" as="geometry"/>
                </mxCell>
                <mxCell id="TQgzKQtOKjQi2imn_hHr-39" value="Confirm systems access was granted" style="whiteSpace=wrap;html=1;verticalAlign=top;labelBackgroundColor=#ffffff;rounded=1;" parent="TQgzKQtOKjQi2imn_hHr-28" vertex="1">
                    <mxGeometry x="670" y="30" width="120" height="60" as="geometry"/>
                </mxCell>
                <mxCell id="TQgzKQtOKjQi2imn_hHr-46" value="Buddy" style="swimlane;startSize=20;horizontal=0;html=1;rounded=1;" parent="TQgzKQtOKjQi2imn_hHr-1" vertex="1">
                    <mxGeometry x="40" y="350" width="1070" height="120" as="geometry">
                        <mxRectangle x="20" width="990" height="30" as="alternateBounds"/>
                    </mxGeometry>
                </mxCell>
                <mxCell id="TQgzKQtOKjQi2imn_hHr-50" value="Confirm you are new hire's Buddy" style="points=[[0.25,0,0],[0.5,0,0],[0.75,0,0],[1,0.25,0],[1,0.5,0],[1,0.75,0],[0.75,1,0],[0.5,1,0],[0.25,1,0],[0,0.75,0],[0,0.5,0],[0,0.25,0]];shape=mxgraph.bpmn.task;whiteSpace=wrap;rectStyle=rounded;size=10;html=1;container=1;expand=0;collapsible=0;taskMarker=abstract;rounded=1;" parent="TQgzKQtOKjQi2imn_hHr-46" vertex="1">
                    <mxGeometry x="440" y="30" width="105" height="60" as="geometry"/>
                </mxCell>
                <mxCell id="TQgzKQtOKjQi2imn_hHr-56" value="Onboarding: 1 - Prior to new Hire's first day" style="text;strokeColor=none;fillColor=none;html=1;fontSize=24;fontStyle=1;verticalAlign=middle;align=left;" parent="TQgzKQtOKjQi2imn_hHr-1" vertex="1">
                    <mxGeometry x="40" y="40" width="600" height="40" as="geometry"/>
                </mxCell>
                <mxCell id="TQgzKQtOKjQi2imn_hHr-57" value="v1.0.0" style="text;html=1;strokeColor=none;fillColor=none;align=left;verticalAlign=middle;whiteSpace=wrap;rounded=0;" parent="TQgzKQtOKjQi2imn_hHr-1" vertex="1">
                    <mxGeometry x="40" y="80" width="60" height="30" as="geometry"/>
                </mxCell>
                <mxCell id="l6jrSMq1p4zG9x2vz-js-14" style="edgeStyle=orthogonalEdgeStyle;html=1;entryX=0.5;entryY=1;entryDx=0;entryDy=0;entryPerimeter=0;" parent="TQgzKQtOKjQi2imn_hHr-1" source="TQgzKQtOKjQi2imn_hHr-11" target="TQgzKQtOKjQi2imn_hHr-50" edge="1">
                    <mxGeometry relative="1" as="geometry"/>
                </mxCell>
                <mxCell id="l6jrSMq1p4zG9x2vz-js-16" style="edgeStyle=orthogonalEdgeStyle;html=1;entryX=0.35;entryY=1;entryDx=0;entryDy=0;entryPerimeter=0;exitX=0.25;exitY=0;exitDx=0;exitDy=0;exitPerimeter=0;" parent="TQgzKQtOKjQi2imn_hHr-1" source="TQgzKQtOKjQi2imn_hHr-15" target="TQgzKQtOKjQi2imn_hHr-39" edge="1">
                    <mxGeometry relative="1" as="geometry">
                        <Array as="points">
                            <mxPoint x="703" y="440"/>
                            <mxPoint x="752" y="440"/>
                        </Array>
                    </mxGeometry>
                </mxCell>
                <mxCell id="l6jrSMq1p4zG9x2vz-js-24" style="edgeStyle=orthogonalEdgeStyle;html=1;dashed=1;entryX=0.675;entryY=0.983;entryDx=0;entryDy=0;entryPerimeter=0;" parent="TQgzKQtOKjQi2imn_hHr-1" source="TQgzKQtOKjQi2imn_hHr-25" target="TQgzKQtOKjQi2imn_hHr-39" edge="1">
                    <mxGeometry relative="1" as="geometry">
                        <Array as="points">
                            <mxPoint x="810" y="440"/>
                            <mxPoint x="790" y="440"/>
                        </Array>
                    </mxGeometry>
                </mxCell>
            </root>
        </mxGraphModel>
    </diagram>
    <diagram name="Onboarding: 2 - New Hire's first day" id="3CPYBdYEiyOSvkBpQVBV">
        <mxGraphModel dx="1386" dy="665" grid="1" gridSize="10" guides="1" tooltips="1" connect="1" arrows="1" fold="1" page="1" pageScale="1" pageWidth="1169" pageHeight="827" math="0" shadow="0">
            <root>
                <mxCell id="bwyTvduJhFPGtZ_ca0Rb-0"/>
                <mxCell id="bwyTvduJhFPGtZ_ca0Rb-1" parent="bwyTvduJhFPGtZ_ca0Rb-0"/>
                <mxCell id="bwyTvduJhFPGtZ_ca0Rb-34" value="Onboarding: 2 - New Hire's first day" style="text;strokeColor=none;fillColor=none;html=1;fontSize=24;fontStyle=1;verticalAlign=middle;align=left;" parent="bwyTvduJhFPGtZ_ca0Rb-1" vertex="1">
                    <mxGeometry x="40" y="40" width="600" height="40" as="geometry"/>
                </mxCell>
                <mxCell id="bwyTvduJhFPGtZ_ca0Rb-35" value="v1.0.0" style="text;html=1;strokeColor=none;fillColor=none;align=left;verticalAlign=middle;whiteSpace=wrap;rounded=0;" parent="bwyTvduJhFPGtZ_ca0Rb-1" vertex="1">
                    <mxGeometry x="40" y="80" width="60" height="30" as="geometry"/>
                </mxCell>
                <mxCell id="mQTfm0GFIpoz1iHzR67z-0" value="Eagle Ops" style="swimlane;childLayout=stackLayout;resizeParent=1;resizeParentMax=0;horizontal=0;startSize=20;horizontalStack=0;html=1;rounded=1;" parent="bwyTvduJhFPGtZ_ca0Rb-1" vertex="1">
                    <mxGeometry x="40" y="510" width="1070" height="130" as="geometry"/>
                </mxCell>
                <mxCell id="mQTfm0GFIpoz1iHzR67z-1" value="People Ops" style="swimlane;startSize=20;horizontal=0;html=1;rounded=1;" parent="mQTfm0GFIpoz1iHzR67z-0" vertex="1">
                    <mxGeometry x="20" width="1050" height="130" as="geometry"/>
                </mxCell>
                <mxCell id="mQTfm0GFIpoz1iHzR67z-2" style="edgeStyle=orthogonalEdgeStyle;rounded=1;orthogonalLoop=1;jettySize=auto;html=1;entryX=0;entryY=0.5;entryDx=0;entryDy=0;entryPerimeter=0;" parent="mQTfm0GFIpoz1iHzR67z-1" source="mQTfm0GFIpoz1iHzR67z-3" target="mQTfm0GFIpoz1iHzR67z-5" edge="1">
                    <mxGeometry relative="1" as="geometry"/>
                </mxCell>
                <mxCell id="mQTfm0GFIpoz1iHzR67z-3" value="Request introduction via Discord" style="points=[[0.25,0,0],[0.5,0,0],[0.75,0,0],[1,0.25,0],[1,0.5,0],[1,0.75,0],[0.75,1,0],[0.5,1,0],[0.25,1,0],[0,0.75,0],[0,0.5,0],[0,0.25,0]];shape=mxgraph.bpmn.task;whiteSpace=wrap;rectStyle=rounded;size=10;html=1;container=1;expand=0;collapsible=0;taskMarker=abstract;rounded=1;" parent="mQTfm0GFIpoz1iHzR67z-1" vertex="1">
                    <mxGeometry x="346" y="30" width="120" height="60" as="geometry"/>
                </mxCell>
                <mxCell id="mQTfm0GFIpoz1iHzR67z-39" style="edgeStyle=orthogonalEdgeStyle;html=1;" parent="mQTfm0GFIpoz1iHzR67z-1" source="mQTfm0GFIpoz1iHzR67z-5" target="mQTfm0GFIpoz1iHzR67z-15" edge="1">
                    <mxGeometry relative="1" as="geometry"/>
                </mxCell>
                <mxCell id="mQTfm0GFIpoz1iHzR67z-5" value="Request to arrange an induction session" style="points=[[0.25,0,0],[0.5,0,0],[0.75,0,0],[1,0.25,0],[1,0.5,0],[1,0.75,0],[0.75,1,0],[0.5,1,0],[0.25,1,0],[0,0.75,0],[0,0.5,0],[0,0.25,0]];shape=mxgraph.bpmn.task;whiteSpace=wrap;rectStyle=rounded;size=10;html=1;container=1;expand=0;collapsible=0;taskMarker=abstract;rounded=1;" parent="mQTfm0GFIpoz1iHzR67z-1" vertex="1">
                    <mxGeometry x="560" y="30" width="161" height="60" as="geometry"/>
                </mxCell>
                <mxCell id="mQTfm0GFIpoz1iHzR67z-9" value="" style="edgeStyle=none;html=1;" parent="mQTfm0GFIpoz1iHzR67z-1" source="mQTfm0GFIpoz1iHzR67z-10" target="mQTfm0GFIpoz1iHzR67z-12" edge="1">
                    <mxGeometry relative="1" as="geometry"/>
                </mxCell>
                <mxCell id="mQTfm0GFIpoz1iHzR67z-10" value="Start" style="points=[[0.145,0.145,0],[0.5,0,0],[0.855,0.145,0],[1,0.5,0],[0.855,0.855,0],[0.5,1,0],[0.145,0.855,0],[0,0.5,0]];shape=mxgraph.bpmn.event;html=1;verticalLabelPosition=bottom;labelBackgroundColor=#ffffff;verticalAlign=top;align=center;perimeter=ellipsePerimeter;outlineConnect=0;aspect=fixed;outline=standard;symbol=general;rounded=1;" parent="mQTfm0GFIpoz1iHzR67z-1" vertex="1">
                    <mxGeometry x="50" y="35" width="50" height="50" as="geometry"/>
                </mxCell>
                <mxCell id="mQTfm0GFIpoz1iHzR67z-11" style="edgeStyle=none;html=1;" parent="mQTfm0GFIpoz1iHzR67z-1" source="mQTfm0GFIpoz1iHzR67z-12" target="mQTfm0GFIpoz1iHzR67z-3" edge="1">
                    <mxGeometry relative="1" as="geometry"/>
                </mxCell>
                <mxCell id="mQTfm0GFIpoz1iHzR67z-12" value="Start coordination to prepare to welcome new hire" style="whiteSpace=wrap;html=1;verticalAlign=top;labelBackgroundColor=#ffffff;rounded=1;" parent="mQTfm0GFIpoz1iHzR67z-1" vertex="1">
                    <mxGeometry x="145" y="30" width="120" height="60" as="geometry"/>
                </mxCell>
                <mxCell id="mQTfm0GFIpoz1iHzR67z-15" value="End" style="points=[[0.145,0.145,0],[0.5,0,0],[0.855,0.145,0],[1,0.5,0],[0.855,0.855,0],[0.5,1,0],[0.145,0.855,0],[0,0.5,0]];shape=mxgraph.bpmn.event;html=1;verticalLabelPosition=bottom;labelBackgroundColor=#ffffff;verticalAlign=top;align=center;perimeter=ellipsePerimeter;outlineConnect=0;aspect=fixed;outline=end;symbol=terminate2;rounded=1;" parent="mQTfm0GFIpoz1iHzR67z-1" vertex="1">
                    <mxGeometry x="871" y="35" width="50" height="50" as="geometry"/>
                </mxCell>
                <mxCell id="mQTfm0GFIpoz1iHzR67z-28" value="&lt;div&gt;Buddy&lt;/div&gt;" style="swimlane;startSize=20;horizontal=0;html=1;whiteSpace=wrap;rounded=1;" parent="bwyTvduJhFPGtZ_ca0Rb-1" vertex="1">
                    <mxGeometry x="40" y="188" width="1070" height="120" as="geometry"/>
                </mxCell>
                <mxCell id="mQTfm0GFIpoz1iHzR67z-38" value="" style="edgeStyle=orthogonalEdgeStyle;html=1;" parent="mQTfm0GFIpoz1iHzR67z-28" source="mQTfm0GFIpoz1iHzR67z-29" target="mQTfm0GFIpoz1iHzR67z-37" edge="1">
                    <mxGeometry relative="1" as="geometry"/>
                </mxCell>
                <mxCell id="mQTfm0GFIpoz1iHzR67z-29" value="Setup an induction session with new hire" style="whiteSpace=wrap;html=1;verticalAlign=top;labelBackgroundColor=#ffffff;rounded=1;" parent="mQTfm0GFIpoz1iHzR67z-28" vertex="1">
                    <mxGeometry x="460" y="30" width="120" height="60" as="geometry"/>
                </mxCell>
                <mxCell id="mQTfm0GFIpoz1iHzR67z-37" value="Share self-onboard Notion page, links to where find important info i.e. policies &amp;amp; procedures (decks, handbooks, videos, offsite, etc.)" style="whiteSpace=wrap;html=1;verticalAlign=top;labelBackgroundColor=#ffffff;rounded=1;" parent="mQTfm0GFIpoz1iHzR67z-28" vertex="1">
                    <mxGeometry x="660" y="30" width="290" height="60" as="geometry"/>
                </mxCell>
                <mxCell id="mQTfm0GFIpoz1iHzR67z-30" value="Hire Manager" style="swimlane;startSize=20;horizontal=0;html=1;rounded=1;" parent="bwyTvduJhFPGtZ_ca0Rb-1" vertex="1">
                    <mxGeometry x="40" y="350" width="1070" height="120" as="geometry">
                        <mxRectangle x="20" width="990" height="30" as="alternateBounds"/>
                    </mxGeometry>
                </mxCell>
                <mxCell id="mQTfm0GFIpoz1iHzR67z-31" value="Introduce new hire to colleagues via Discord" style="points=[[0.25,0,0],[0.5,0,0],[0.75,0,0],[1,0.25,0],[1,0.5,0],[1,0.75,0],[0.75,1,0],[0.5,1,0],[0.25,1,0],[0,0.75,0],[0,0.5,0],[0,0.25,0]];shape=mxgraph.bpmn.task;whiteSpace=wrap;rectStyle=rounded;size=10;html=1;container=1;expand=0;collapsible=0;taskMarker=abstract;rounded=1;" parent="mQTfm0GFIpoz1iHzR67z-30" vertex="1">
                    <mxGeometry x="230" y="30" width="165" height="60" as="geometry"/>
                </mxCell>
                <mxCell id="mQTfm0GFIpoz1iHzR67z-33" style="edgeStyle=orthogonalEdgeStyle;html=1;" parent="bwyTvduJhFPGtZ_ca0Rb-1" source="mQTfm0GFIpoz1iHzR67z-5" edge="1">
                    <mxGeometry relative="1" as="geometry">
                        <Array as="points">
                            <mxPoint x="690" y="440"/>
                            <mxPoint x="554" y="440"/>
                        </Array>
                        <mxPoint x="700" y="530" as="sourcePoint"/>
                        <mxPoint x="554" y="280" as="targetPoint"/>
                    </mxGeometry>
                </mxCell>
                <mxCell id="mQTfm0GFIpoz1iHzR67z-35" style="edgeStyle=orthogonalEdgeStyle;html=1;entryX=0.59;entryY=1.05;entryDx=0;entryDy=0;entryPerimeter=0;exitX=0.5;exitY=0;exitDx=0;exitDy=0;exitPerimeter=0;" parent="bwyTvduJhFPGtZ_ca0Rb-1" source="mQTfm0GFIpoz1iHzR67z-3" target="mQTfm0GFIpoz1iHzR67z-31" edge="1">
                    <mxGeometry relative="1" as="geometry">
                        <Array as="points">
                            <mxPoint x="466" y="480"/>
                            <mxPoint x="367" y="480"/>
                        </Array>
                    </mxGeometry>
                </mxCell>
            </root>
        </mxGraphModel>
    </diagram>
    <diagram name="Request access to an IT service" id="FCsPbFIwRK9KC47_u4Ol">
        <mxGraphModel dx="1386" dy="547" grid="1" gridSize="10" guides="1" tooltips="1" connect="1" arrows="1" fold="1" page="1" pageScale="1" pageWidth="1169" pageHeight="827" math="0" shadow="0">
            <root>
                <mxCell id="51iS07tQRozPkl2rctjO-0"/>
                <mxCell id="51iS07tQRozPkl2rctjO-1" parent="51iS07tQRozPkl2rctjO-0"/>
                <mxCell id="51iS07tQRozPkl2rctjO-2" value="Request access to an IT service" style="text;strokeColor=none;fillColor=none;html=1;fontSize=24;fontStyle=1;verticalAlign=middle;align=left;" vertex="1" parent="51iS07tQRozPkl2rctjO-1">
                    <mxGeometry x="40" y="40" width="600" height="40" as="geometry"/>
                </mxCell>
                <mxCell id="51iS07tQRozPkl2rctjO-3" value="v1.0.0" style="text;html=1;strokeColor=none;fillColor=none;align=left;verticalAlign=middle;whiteSpace=wrap;rounded=0;" vertex="1" parent="51iS07tQRozPkl2rctjO-1">
                    <mxGeometry x="40" y="80" width="60" height="30" as="geometry"/>
                </mxCell>
                <mxCell id="51iS07tQRozPkl2rctjO-4" value="Eagle Ops" style="swimlane;childLayout=stackLayout;resizeParent=1;resizeParentMax=0;horizontal=0;startSize=20;horizontalStack=0;html=1;rounded=1;" vertex="1" parent="51iS07tQRozPkl2rctjO-1">
                    <mxGeometry x="40" y="439" width="1070" height="150" as="geometry"/>
                </mxCell>
                <mxCell id="51iS07tQRozPkl2rctjO-5" value="DevOps" style="swimlane;startSize=20;horizontal=0;html=1;rounded=1;" vertex="1" parent="51iS07tQRozPkl2rctjO-4">
                    <mxGeometry x="20" width="1050" height="150" as="geometry"/>
                </mxCell>
                <mxCell id="rEmq0OwkIp7iM4Cy-W4Q-18" value="" style="edgeStyle=none;html=1;" edge="1" parent="51iS07tQRozPkl2rctjO-5" source="51iS07tQRozPkl2rctjO-7" target="rEmq0OwkIp7iM4Cy-W4Q-17">
                    <mxGeometry relative="1" as="geometry"/>
                </mxCell>
                <mxCell id="51iS07tQRozPkl2rctjO-7" value="Identify a 1Password Group and Vault for requested service&amp;nbsp;" style="points=[[0.25,0,0],[0.5,0,0],[0.75,0,0],[1,0.25,0],[1,0.5,0],[1,0.75,0],[0.75,1,0],[0.5,1,0],[0.25,1,0],[0,0.75,0],[0,0.5,0],[0,0.25,0]];shape=mxgraph.bpmn.task;whiteSpace=wrap;rectStyle=rounded;size=10;html=1;container=1;expand=0;collapsible=0;taskMarker=abstract;rounded=1;" vertex="1" parent="51iS07tQRozPkl2rctjO-5">
                    <mxGeometry x="282" y="30" width="120" height="60" as="geometry"/>
                </mxCell>
                <mxCell id="51iS07tQRozPkl2rctjO-12" style="edgeStyle=none;html=1;" edge="1" parent="51iS07tQRozPkl2rctjO-5" source="51iS07tQRozPkl2rctjO-13" target="51iS07tQRozPkl2rctjO-7">
                    <mxGeometry relative="1" as="geometry"/>
                </mxCell>
                <mxCell id="51iS07tQRozPkl2rctjO-13" value="Verify Jira ticket details, role, service permissions level and confirm access with Lead Manager" style="whiteSpace=wrap;html=1;verticalAlign=top;labelBackgroundColor=#ffffff;rounded=1;" vertex="1" parent="51iS07tQRozPkl2rctjO-5">
                    <mxGeometry x="40" y="30" width="200" height="60" as="geometry"/>
                </mxCell>
                <mxCell id="rEmq0OwkIp7iM4Cy-W4Q-20" value="" style="edgeStyle=none;html=1;" edge="1" parent="51iS07tQRozPkl2rctjO-5" source="rEmq0OwkIp7iM4Cy-W4Q-17" target="rEmq0OwkIp7iM4Cy-W4Q-19">
                    <mxGeometry relative="1" as="geometry"/>
                </mxCell>
                <mxCell id="rEmq0OwkIp7iM4Cy-W4Q-23" style="edgeStyle=orthogonalEdgeStyle;html=1;entryX=0.25;entryY=0;entryDx=0;entryDy=0;" edge="1" parent="51iS07tQRozPkl2rctjO-5" source="rEmq0OwkIp7iM4Cy-W4Q-17" target="rEmq0OwkIp7iM4Cy-W4Q-21">
                    <mxGeometry relative="1" as="geometry">
                        <Array as="points">
                            <mxPoint x="476" y="-30"/>
                            <mxPoint x="820" y="-30"/>
                        </Array>
                    </mxGeometry>
                </mxCell>
                <mxCell id="rEmq0OwkIp7iM4Cy-W4Q-17" value="" style="rhombus;whiteSpace=wrap;html=1;rounded=1;" vertex="1" parent="51iS07tQRozPkl2rctjO-5">
                    <mxGeometry x="436" y="20" width="80" height="80" as="geometry"/>
                </mxCell>
                <mxCell id="rEmq0OwkIp7iM4Cy-W4Q-22" value="" style="edgeStyle=none;html=1;" edge="1" parent="51iS07tQRozPkl2rctjO-5" source="rEmq0OwkIp7iM4Cy-W4Q-19" target="rEmq0OwkIp7iM4Cy-W4Q-21">
                    <mxGeometry relative="1" as="geometry"/>
                </mxCell>
                <mxCell id="rEmq0OwkIp7iM4Cy-W4Q-19" value="Create 1Password Group and/or Vault" style="whiteSpace=wrap;html=1;rounded=1;" vertex="1" parent="51iS07tQRozPkl2rctjO-5">
                    <mxGeometry x="590" y="30" width="120" height="60" as="geometry"/>
                </mxCell>
                <mxCell id="rEmq0OwkIp7iM4Cy-W4Q-21" value="Grant access, notify and close Jira ticket" style="whiteSpace=wrap;html=1;rounded=1;" vertex="1" parent="51iS07tQRozPkl2rctjO-5">
                    <mxGeometry x="780" y="30" width="160" height="60" as="geometry"/>
                </mxCell>
                <mxCell id="rEmq0OwkIp7iM4Cy-W4Q-24" value="&lt;span style=&quot;color: rgb(0, 0, 0); font-family: Helvetica; font-size: 12px; font-style: normal; font-variant-ligatures: normal; font-variant-caps: normal; font-weight: 400; letter-spacing: normal; orphans: 2; text-align: center; text-indent: 0px; text-transform: none; widows: 2; word-spacing: 0px; -webkit-text-stroke-width: 0px; background-color: rgb(251, 251, 251); text-decoration-thickness: initial; text-decoration-style: initial; text-decoration-color: initial; float: none; display: inline !important;&quot;&gt;Exist&amp;nbsp;&lt;/span&gt;&lt;span style=&quot;color: rgb(0, 0, 0); font-family: Helvetica; font-size: 12px; font-style: normal; font-variant-ligatures: normal; font-variant-caps: normal; font-weight: 400; letter-spacing: normal; orphans: 2; text-align: center; text-indent: 0px; text-transform: none; widows: 2; word-spacing: 0px; -webkit-text-stroke-width: 0px; background-color: rgb(251, 251, 251); text-decoration-thickness: initial; text-decoration-style: initial; text-decoration-color: initial; float: none; display: inline !important;&quot;&gt;1Password Group and/or&lt;span&gt;&amp;nbsp;&lt;/span&gt;&lt;/span&gt;&lt;span style=&quot;color: rgb(0, 0, 0); font-family: Helvetica; font-size: 12px; font-style: normal; font-variant-ligatures: normal; font-variant-caps: normal; font-weight: 400; letter-spacing: normal; orphans: 2; text-align: center; text-indent: 0px; text-transform: none; widows: 2; word-spacing: 0px; -webkit-text-stroke-width: 0px; background-color: rgb(251, 251, 251); text-decoration-thickness: initial; text-decoration-style: initial; text-decoration-color: initial; float: none; display: inline !important;&quot;&gt;Vault ?&amp;nbsp;&lt;/span&gt;" style="text;whiteSpace=wrap;html=1;" vertex="1" parent="51iS07tQRozPkl2rctjO-5">
                    <mxGeometry x="436" y="98" width="124" height="40" as="geometry"/>
                </mxCell>
                <mxCell id="51iS07tQRozPkl2rctjO-15" value="&lt;div&gt;Employee&lt;/div&gt;" style="swimlane;startSize=20;horizontal=0;html=1;whiteSpace=wrap;rounded=1;" vertex="1" parent="51iS07tQRozPkl2rctjO-1">
                    <mxGeometry x="40" y="248" width="1070" height="120" as="geometry"/>
                </mxCell>
                <mxCell id="rEmq0OwkIp7iM4Cy-W4Q-6" value="" style="edgeStyle=none;html=1;" edge="1" parent="51iS07tQRozPkl2rctjO-15" source="51iS07tQRozPkl2rctjO-11" target="rEmq0OwkIp7iM4Cy-W4Q-5">
                    <mxGeometry relative="1" as="geometry"/>
                </mxCell>
                <mxCell id="51iS07tQRozPkl2rctjO-11" value="Start" style="points=[[0.145,0.145,0],[0.5,0,0],[0.855,0.145,0],[1,0.5,0],[0.855,0.855,0],[0.5,1,0],[0.145,0.855,0],[0,0.5,0]];shape=mxgraph.bpmn.event;html=1;verticalLabelPosition=bottom;labelBackgroundColor=#ffffff;verticalAlign=top;align=center;perimeter=ellipsePerimeter;outlineConnect=0;aspect=fixed;outline=standard;symbol=general;rounded=1;" vertex="1" parent="51iS07tQRozPkl2rctjO-15">
                    <mxGeometry x="40" y="30" width="50" height="50" as="geometry"/>
                </mxCell>
                <mxCell id="rEmq0OwkIp7iM4Cy-W4Q-13" value="" style="edgeStyle=none;html=1;" edge="1" parent="51iS07tQRozPkl2rctjO-15" source="rEmq0OwkIp7iM4Cy-W4Q-5" target="rEmq0OwkIp7iM4Cy-W4Q-12">
                    <mxGeometry relative="1" as="geometry"/>
                </mxCell>
                <mxCell id="rEmq0OwkIp7iM4Cy-W4Q-5" value="Identify what IT service do you need" style="whiteSpace=wrap;html=1;verticalAlign=top;labelBackgroundColor=#ffffff;rounded=1;" vertex="1" parent="51iS07tQRozPkl2rctjO-15">
                    <mxGeometry x="135" y="25" width="120" height="60" as="geometry"/>
                </mxCell>
                <mxCell id="rEmq0OwkIp7iM4Cy-W4Q-30" style="edgeStyle=orthogonalEdgeStyle;html=1;" edge="1" parent="51iS07tQRozPkl2rctjO-15" source="rEmq0OwkIp7iM4Cy-W4Q-12" target="rEmq0OwkIp7iM4Cy-W4Q-28">
                    <mxGeometry relative="1" as="geometry"/>
                </mxCell>
                <mxCell id="5EXGLdaYHChK2MeQXX_1-4" style="edgeStyle=orthogonalEdgeStyle;html=1;entryX=0.5;entryY=0;entryDx=0;entryDy=0;" edge="1" parent="51iS07tQRozPkl2rctjO-15" source="rEmq0OwkIp7iM4Cy-W4Q-12" target="rEmq0OwkIp7iM4Cy-W4Q-14">
                    <mxGeometry relative="1" as="geometry">
                        <Array as="points">
                            <mxPoint x="350" y="-28"/>
                            <mxPoint x="670" y="-28"/>
                        </Array>
                    </mxGeometry>
                </mxCell>
                <mxCell id="rEmq0OwkIp7iM4Cy-W4Q-12" value="" style="rhombus;whiteSpace=wrap;html=1;verticalAlign=top;labelBackgroundColor=#ffffff;rounded=1;" vertex="1" parent="51iS07tQRozPkl2rctjO-15">
                    <mxGeometry x="310" y="15" width="80" height="80" as="geometry"/>
                </mxCell>
                <mxCell id="5EXGLdaYHChK2MeQXX_1-11" value="" style="edgeStyle=orthogonalEdgeStyle;html=1;" edge="1" parent="51iS07tQRozPkl2rctjO-15" source="rEmq0OwkIp7iM4Cy-W4Q-14" target="5EXGLdaYHChK2MeQXX_1-10">
                    <mxGeometry relative="1" as="geometry"/>
                </mxCell>
                <mxCell id="rEmq0OwkIp7iM4Cy-W4Q-14" value="Request access to that Service by using Jira &lt;br&gt;(CC to Line Manager)" style="whiteSpace=wrap;html=1;verticalAlign=top;labelBackgroundColor=#ffffff;rounded=1;" vertex="1" parent="51iS07tQRozPkl2rctjO-15">
                    <mxGeometry x="597" y="25" width="145" height="60" as="geometry"/>
                </mxCell>
                <mxCell id="rEmq0OwkIp7iM4Cy-W4Q-16" value="&lt;span style=&quot;color: rgb(0, 0, 0); font-family: Helvetica; font-size: 12px; font-style: normal; font-variant-ligatures: normal; font-variant-caps: normal; font-weight: 400; letter-spacing: normal; orphans: 2; text-align: center; text-indent: 0px; text-transform: none; widows: 2; word-spacing: 0px; -webkit-text-stroke-width: 0px; background-color: rgb(255, 255, 255); text-decoration-thickness: initial; text-decoration-style: initial; text-decoration-color: initial; float: none; display: inline !important;&quot;&gt;Is IT service&amp;nbsp;&lt;br&gt;&lt;/span&gt;&lt;span style=&quot;color: rgb(0, 0, 0); font-family: Helvetica; font-size: 12px; font-style: normal; font-variant-ligatures: normal; font-variant-caps: normal; font-weight: 400; letter-spacing: normal; orphans: 2; text-align: center; text-indent: 0px; text-transform: none; widows: 2; word-spacing: 0px; -webkit-text-stroke-width: 0px; background-color: rgb(255, 255, 255); text-decoration-thickness: initial; text-decoration-style: initial; text-decoration-color: initial; float: none; display: inline !important;&quot;&gt;provided by Eagle Ops&lt;/span&gt;" style="text;whiteSpace=wrap;html=1;" vertex="1" parent="51iS07tQRozPkl2rctjO-15">
                    <mxGeometry x="272" y="80" width="130" height="31" as="geometry"/>
                </mxCell>
                <mxCell id="51iS07tQRozPkl2rctjO-14" value="End" style="points=[[0.145,0.145,0],[0.5,0,0],[0.855,0.145,0],[1,0.5,0],[0.855,0.855,0],[0.5,1,0],[0.145,0.855,0],[0,0.5,0]];shape=mxgraph.bpmn.event;html=1;verticalLabelPosition=bottom;labelBackgroundColor=#ffffff;verticalAlign=top;align=center;perimeter=ellipsePerimeter;outlineConnect=0;aspect=fixed;outline=end;symbol=terminate2;rounded=1;" vertex="1" parent="51iS07tQRozPkl2rctjO-15">
                    <mxGeometry x="990" y="30" width="50" height="50" as="geometry"/>
                </mxCell>
                <mxCell id="5EXGLdaYHChK2MeQXX_1-2" style="edgeStyle=orthogonalEdgeStyle;html=1;" edge="1" parent="51iS07tQRozPkl2rctjO-15" source="rEmq0OwkIp7iM4Cy-W4Q-28" target="rEmq0OwkIp7iM4Cy-W4Q-14">
                    <mxGeometry relative="1" as="geometry">
                        <mxPoint x="581" y="55" as="targetPoint"/>
                    </mxGeometry>
                </mxCell>
                <mxCell id="rEmq0OwkIp7iM4Cy-W4Q-28" value="Request access to new IT service" style="points=[[0.25,0,0],[0.5,0,0],[0.75,0,0],[1,0.25,0],[1,0.5,0],[1,0.75,0],[0.75,1,0],[0.5,1,0],[0.25,1,0],[0,0.75,0],[0,0.5,0],[0,0.25,0]];shape=mxgraph.bpmn.task;whiteSpace=wrap;rectStyle=rounded;size=10;html=1;taskMarker=abstract;isLoopSub=1;" vertex="1" parent="51iS07tQRozPkl2rctjO-15">
                    <mxGeometry x="424" y="15" width="120" height="80" as="geometry"/>
                </mxCell>
                <mxCell id="rEmq0OwkIp7iM4Cy-W4Q-27" value="Yes" style="text;html=1;align=center;verticalAlign=middle;resizable=0;points=[];autosize=1;strokeColor=none;fillColor=none;" vertex="1" parent="51iS07tQRozPkl2rctjO-15">
                    <mxGeometry x="350" y="-5" width="40" height="30" as="geometry"/>
                </mxCell>
                <mxCell id="5EXGLdaYHChK2MeQXX_1-12" style="edgeStyle=orthogonalEdgeStyle;html=1;entryX=0;entryY=0.5;entryDx=0;entryDy=0;entryPerimeter=0;" edge="1" parent="51iS07tQRozPkl2rctjO-15" source="5EXGLdaYHChK2MeQXX_1-10" target="51iS07tQRozPkl2rctjO-14">
                    <mxGeometry relative="1" as="geometry"/>
                </mxCell>
                <mxCell id="5EXGLdaYHChK2MeQXX_1-10" value="Confirm access" style="whiteSpace=wrap;html=1;verticalAlign=top;labelBackgroundColor=#ffffff;rounded=1;" vertex="1" parent="51iS07tQRozPkl2rctjO-15">
                    <mxGeometry x="813" y="25" width="106" height="60" as="geometry"/>
                </mxCell>
                <mxCell id="rEmq0OwkIp7iM4Cy-W4Q-25" value="Yes" style="text;html=1;align=center;verticalAlign=middle;resizable=0;points=[];autosize=1;strokeColor=none;fillColor=none;" vertex="1" parent="51iS07tQRozPkl2rctjO-1">
                    <mxGeometry x="530" y="434" width="40" height="30" as="geometry"/>
                </mxCell>
                <mxCell id="rEmq0OwkIp7iM4Cy-W4Q-26" value="Not" style="text;html=1;align=center;verticalAlign=middle;resizable=0;points=[];autosize=1;strokeColor=none;fillColor=none;" vertex="1" parent="51iS07tQRozPkl2rctjO-1">
                    <mxGeometry x="570" y="464" width="40" height="30" as="geometry"/>
                </mxCell>
                <mxCell id="5EXGLdaYHChK2MeQXX_1-5" value="Not" style="text;html=1;align=center;verticalAlign=middle;resizable=0;points=[];autosize=1;strokeColor=none;fillColor=none;" vertex="1" parent="51iS07tQRozPkl2rctjO-1">
                    <mxGeometry x="420" y="275" width="40" height="30" as="geometry"/>
                </mxCell>
                <mxCell id="5EXGLdaYHChK2MeQXX_1-7" style="edgeStyle=orthogonalEdgeStyle;html=1;dashed=1;" edge="1" parent="51iS07tQRozPkl2rctjO-1" source="rEmq0OwkIp7iM4Cy-W4Q-14" target="51iS07tQRozPkl2rctjO-13">
                    <mxGeometry relative="1" as="geometry">
                        <Array as="points">
                            <mxPoint x="710" y="389"/>
                            <mxPoint x="200" y="389"/>
                        </Array>
                    </mxGeometry>
                </mxCell>
                <mxCell id="5EXGLdaYHChK2MeQXX_1-8" value="" style="image;image=img/lib/atlassian/Jira_Logo.svg;" vertex="1" parent="51iS07tQRozPkl2rctjO-1">
                    <mxGeometry x="170" y="409" width="22" height="22" as="geometry"/>
                </mxCell>
                <mxCell id="5EXGLdaYHChK2MeQXX_1-9" value="Jira ticket" style="text;html=1;align=center;verticalAlign=middle;resizable=0;points=[];autosize=1;strokeColor=none;fillColor=none;" vertex="1" parent="51iS07tQRozPkl2rctjO-1">
                    <mxGeometry x="200" y="405" width="70" height="30" as="geometry"/>
                </mxCell>
                <mxCell id="5EXGLdaYHChK2MeQXX_1-13" style="edgeStyle=orthogonalEdgeStyle;html=1;dashed=1;" edge="1" parent="51iS07tQRozPkl2rctjO-1" source="rEmq0OwkIp7iM4Cy-W4Q-21" target="5EXGLdaYHChK2MeQXX_1-10">
                    <mxGeometry relative="1" as="geometry"/>
                </mxCell>
                <mxCell id="5EXGLdaYHChK2MeQXX_1-14" value="" style="shape=message;html=1;html=1;outlineConnect=0;labelPosition=center;verticalLabelPosition=bottom;align=center;verticalAlign=top;" vertex="1" parent="51iS07tQRozPkl2rctjO-1">
                    <mxGeometry x="919" y="346" width="20" height="10" as="geometry"/>
                </mxCell>
                <mxCell id="5EXGLdaYHChK2MeQXX_1-16" value="An &lt;b&gt;IT service&lt;/b&gt; can be:&lt;br&gt;1. Software as a Service: Google Calendar, Figma, ...&lt;br&gt;2. Engineering Tool: GitHub repo, Jira board, ...&lt;br&gt;3. Communication Tool: Discord, Discourse, ...&lt;br&gt;4. Cloud Infrastructure: Google Cloud, Hetzner, ..." style="text;html=1;align=left;verticalAlign=middle;resizable=0;points=[];autosize=1;strokeColor=#82b366;fillColor=#d5e8d4;" vertex="1" parent="51iS07tQRozPkl2rctjO-1">
                    <mxGeometry x="40" y="110" width="310" height="90" as="geometry"/>
                </mxCell>
            </root>
        </mxGraphModel>
    </diagram>
    <diagram name="Remove access to an IT service" id="L2cBwfH576BKTajewY1E">
        <mxGraphModel dx="1386" dy="665" grid="1" gridSize="10" guides="1" tooltips="1" connect="1" arrows="1" fold="1" page="1" pageScale="1" pageWidth="1169" pageHeight="827" math="0" shadow="0">
            <root>
                <mxCell id="skANhm0GrGiO8IPpH63l-0"/>
                <mxCell id="skANhm0GrGiO8IPpH63l-1" parent="skANhm0GrGiO8IPpH63l-0"/>
                <mxCell id="skANhm0GrGiO8IPpH63l-2" value="Remove access to an IT service (Tool)" style="text;strokeColor=none;fillColor=none;html=1;fontSize=24;fontStyle=1;verticalAlign=middle;align=left;" parent="skANhm0GrGiO8IPpH63l-1" vertex="1">
                    <mxGeometry x="40" y="40" width="420" height="40" as="geometry"/>
                </mxCell>
                <mxCell id="skANhm0GrGiO8IPpH63l-3" value="v1.0.0" style="text;html=1;strokeColor=none;fillColor=none;align=left;verticalAlign=middle;whiteSpace=wrap;rounded=0;" parent="skANhm0GrGiO8IPpH63l-1" vertex="1">
                    <mxGeometry x="40" y="80" width="60" height="30" as="geometry"/>
                </mxCell>
                <mxCell id="skANhm0GrGiO8IPpH63l-4" value="Eagle Ops" style="swimlane;childLayout=stackLayout;resizeParent=1;resizeParentMax=0;horizontal=0;startSize=20;horizontalStack=0;html=1;rounded=1;" parent="skANhm0GrGiO8IPpH63l-1" vertex="1">
                    <mxGeometry x="40" y="263" width="1110" height="260" as="geometry"/>
                </mxCell>
                <mxCell id="y5oU_dKVdZaJTqCpDQ2u-0" value="People Ops" style="swimlane;startSize=20;horizontal=0;html=1;rounded=1;" parent="skANhm0GrGiO8IPpH63l-4" vertex="1">
                    <mxGeometry x="20" width="1090" height="130" as="geometry"/>
                </mxCell>
                <mxCell id="y5oU_dKVdZaJTqCpDQ2u-9" style="edgeStyle=orthogonalEdgeStyle;rounded=1;orthogonalLoop=1;jettySize=auto;html=1;" parent="y5oU_dKVdZaJTqCpDQ2u-0" source="y5oU_dKVdZaJTqCpDQ2u-10" target="y5oU_dKVdZaJTqCpDQ2u-12" edge="1">
                    <mxGeometry relative="1" as="geometry"/>
                </mxCell>
                <mxCell id="y5oU_dKVdZaJTqCpDQ2u-10" value="Notify request individual's removal systems access" style="points=[[0.25,0,0],[0.5,0,0],[0.75,0,0],[1,0.25,0],[1,0.5,0],[1,0.75,0],[0.75,1,0],[0.5,1,0],[0.25,1,0],[0,0.75,0],[0,0.5,0],[0,0.25,0]];shape=mxgraph.bpmn.task;whiteSpace=wrap;rectStyle=rounded;size=10;html=1;container=1;expand=0;collapsible=0;taskMarker=abstract;rounded=1;" parent="y5oU_dKVdZaJTqCpDQ2u-0" vertex="1">
                    <mxGeometry x="250" y="30" width="120" height="60" as="geometry"/>
                </mxCell>
                <mxCell id="y5oU_dKVdZaJTqCpDQ2u-12" value="Receive process removal completed" style="points=[[0.25,0,0],[0.5,0,0],[0.75,0,0],[1,0.25,0],[1,0.5,0],[1,0.75,0],[0.75,1,0],[0.5,1,0],[0.25,1,0],[0,0.75,0],[0,0.5,0],[0,0.25,0]];shape=mxgraph.bpmn.task;whiteSpace=wrap;rectStyle=rounded;size=10;html=1;container=1;expand=0;collapsible=0;taskMarker=abstract;rounded=1;" parent="y5oU_dKVdZaJTqCpDQ2u-0" vertex="1">
                    <mxGeometry x="700" y="30" width="128.62" height="60" as="geometry"/>
                </mxCell>
                <mxCell id="y5oU_dKVdZaJTqCpDQ2u-23" style="edgeStyle=orthogonalEdgeStyle;html=1;fontFamily=Helvetica;fontSize=12;fontColor=default;" parent="y5oU_dKVdZaJTqCpDQ2u-0" source="skANhm0GrGiO8IPpH63l-19" target="y5oU_dKVdZaJTqCpDQ2u-10" edge="1">
                    <mxGeometry relative="1" as="geometry"/>
                </mxCell>
                <mxCell id="skANhm0GrGiO8IPpH63l-19" value="Start" style="points=[[0.145,0.145,0],[0.5,0,0],[0.855,0.145,0],[1,0.5,0],[0.855,0.855,0],[0.5,1,0],[0.145,0.855,0],[0,0.5,0]];shape=mxgraph.bpmn.event;html=1;verticalLabelPosition=bottom;labelBackgroundColor=#ffffff;verticalAlign=top;align=center;perimeter=ellipsePerimeter;outlineConnect=0;aspect=fixed;outline=standard;symbol=general;rounded=1;" parent="y5oU_dKVdZaJTqCpDQ2u-0" vertex="1">
                    <mxGeometry x="60" y="35" width="50" height="50" as="geometry"/>
                </mxCell>
                <mxCell id="skANhm0GrGiO8IPpH63l-28" value="End" style="points=[[0.145,0.145,0],[0.5,0,0],[0.855,0.145,0],[1,0.5,0],[0.855,0.855,0],[0.5,1,0],[0.145,0.855,0],[0,0.5,0]];shape=mxgraph.bpmn.event;html=1;verticalLabelPosition=bottom;labelBackgroundColor=#ffffff;verticalAlign=top;align=center;perimeter=ellipsePerimeter;outlineConnect=0;aspect=fixed;outline=end;symbol=terminate2;rounded=1;" parent="y5oU_dKVdZaJTqCpDQ2u-0" vertex="1">
                    <mxGeometry x="930" y="35" width="50" height="50" as="geometry"/>
                </mxCell>
                <mxCell id="IFv3RHAwgai954pIq1Md-15" style="edgeStyle=orthogonalEdgeStyle;html=1;fontFamily=Helvetica;fontSize=12;fontColor=default;" parent="y5oU_dKVdZaJTqCpDQ2u-0" source="y5oU_dKVdZaJTqCpDQ2u-12" target="skANhm0GrGiO8IPpH63l-28" edge="1">
                    <mxGeometry relative="1" as="geometry">
                        <mxPoint x="890" y="60" as="targetPoint"/>
                    </mxGeometry>
                </mxCell>
                <mxCell id="skANhm0GrGiO8IPpH63l-41" value="" style="shape=message;html=1;html=1;outlineConnect=0;labelPosition=center;verticalLabelPosition=bottom;align=center;verticalAlign=top;" parent="y5oU_dKVdZaJTqCpDQ2u-0" vertex="1">
                    <mxGeometry x="730" y="101" width="20" height="10" as="geometry"/>
                </mxCell>
                <mxCell id="skANhm0GrGiO8IPpH63l-5" value="DevOps" style="swimlane;startSize=20;horizontal=0;html=1;rounded=1;" parent="skANhm0GrGiO8IPpH63l-4" vertex="1">
                    <mxGeometry x="20" y="130" width="1090" height="130" as="geometry"/>
                </mxCell>
                <mxCell id="IFv3RHAwgai954pIq1Md-6" style="edgeStyle=orthogonalEdgeStyle;html=1;fontFamily=Helvetica;fontSize=12;fontColor=default;" parent="skANhm0GrGiO8IPpH63l-5" source="skANhm0GrGiO8IPpH63l-7" target="IFv3RHAwgai954pIq1Md-0" edge="1">
                    <mxGeometry relative="1" as="geometry"/>
                </mxCell>
                <mxCell id="skANhm0GrGiO8IPpH63l-7" value="Disable Google Account" style="points=[[0.25,0,0],[0.5,0,0],[0.75,0,0],[1,0.25,0],[1,0.5,0],[1,0.75,0],[0.75,1,0],[0.5,1,0],[0.25,1,0],[0,0.75,0],[0,0.5,0],[0,0.25,0]];shape=mxgraph.bpmn.task;whiteSpace=wrap;rectStyle=rounded;size=10;html=1;container=1;expand=0;collapsible=0;taskMarker=abstract;rounded=1;" parent="skANhm0GrGiO8IPpH63l-5" vertex="1">
                    <mxGeometry x="181" y="37" width="80" height="60" as="geometry"/>
                </mxCell>
                <mxCell id="skANhm0GrGiO8IPpH63l-8" style="edgeStyle=none;html=1;" parent="skANhm0GrGiO8IPpH63l-5" source="skANhm0GrGiO8IPpH63l-9" target="skANhm0GrGiO8IPpH63l-7" edge="1">
                    <mxGeometry relative="1" as="geometry"/>
                </mxCell>
                <mxCell id="skANhm0GrGiO8IPpH63l-9" value="Verify Jira ticket details, user details, role and services" style="whiteSpace=wrap;html=1;verticalAlign=top;labelBackgroundColor=#ffffff;rounded=1;" parent="skANhm0GrGiO8IPpH63l-5" vertex="1">
                    <mxGeometry x="42" y="37" width="110" height="60" as="geometry"/>
                </mxCell>
                <mxCell id="skANhm0GrGiO8IPpH63l-13" value="" style="edgeStyle=none;html=1;" parent="skANhm0GrGiO8IPpH63l-5" source="skANhm0GrGiO8IPpH63l-14" target="skANhm0GrGiO8IPpH63l-15" edge="1">
                    <mxGeometry relative="1" as="geometry"/>
                </mxCell>
                <mxCell id="skANhm0GrGiO8IPpH63l-14" value="Remove access to 1Password&amp;nbsp;" style="whiteSpace=wrap;html=1;rounded=1;" parent="skANhm0GrGiO8IPpH63l-5" vertex="1">
                    <mxGeometry x="678" y="37" width="80" height="60" as="geometry"/>
                </mxCell>
                <mxCell id="IFv3RHAwgai954pIq1Md-11" value="" style="edgeStyle=orthogonalEdgeStyle;html=1;fontFamily=Helvetica;fontSize=12;fontColor=default;" parent="skANhm0GrGiO8IPpH63l-5" source="skANhm0GrGiO8IPpH63l-15" target="IFv3RHAwgai954pIq1Md-10" edge="1">
                    <mxGeometry relative="1" as="geometry"/>
                </mxCell>
                <mxCell id="skANhm0GrGiO8IPpH63l-15" value="Remove access to others (KnowBe4, ...)" style="whiteSpace=wrap;html=1;rounded=1;" parent="skANhm0GrGiO8IPpH63l-5" vertex="1">
                    <mxGeometry x="781" y="37" width="100" height="60" as="geometry"/>
                </mxCell>
                <mxCell id="y5oU_dKVdZaJTqCpDQ2u-13" value="" style="image;html=1;image=img/lib/atlassian/Jira_Logo.svg;rounded=1;aspect=fixed;" parent="skANhm0GrGiO8IPpH63l-5" vertex="1">
                    <mxGeometry x="60" y="8.379999999999995" width="23.622" height="23.62" as="geometry"/>
                </mxCell>
                <mxCell id="y5oU_dKVdZaJTqCpDQ2u-14" value="Jira ticket" style="text;html=1;strokeColor=none;fillColor=none;align=center;verticalAlign=middle;whiteSpace=wrap;rounded=0;" parent="skANhm0GrGiO8IPpH63l-5" vertex="1">
                    <mxGeometry x="103" y="3.1899999999999977" width="60" height="30" as="geometry"/>
                </mxCell>
                <mxCell id="IFv3RHAwgai954pIq1Md-7" style="edgeStyle=orthogonalEdgeStyle;html=1;fontFamily=Helvetica;fontSize=12;fontColor=default;" parent="skANhm0GrGiO8IPpH63l-5" source="IFv3RHAwgai954pIq1Md-0" target="IFv3RHAwgai954pIq1Md-2" edge="1">
                    <mxGeometry relative="1" as="geometry"/>
                </mxCell>
                <mxCell id="IFv3RHAwgai954pIq1Md-0" value="Remove all Discord and Forum Roles" style="points=[[0.25,0,0],[0.5,0,0],[0.75,0,0],[1,0.25,0],[1,0.5,0],[1,0.75,0],[0.75,1,0],[0.5,1,0],[0.25,1,0],[0,0.75,0],[0,0.5,0],[0,0.25,0]];shape=mxgraph.bpmn.task;whiteSpace=wrap;rectStyle=rounded;size=10;html=1;container=1;expand=0;collapsible=0;taskMarker=abstract;rounded=1;" parent="skANhm0GrGiO8IPpH63l-5" vertex="1">
                    <mxGeometry x="290" y="37" width="90" height="60" as="geometry"/>
                </mxCell>
                <mxCell id="IFv3RHAwgai954pIq1Md-8" style="edgeStyle=orthogonalEdgeStyle;html=1;fontFamily=Helvetica;fontSize=12;fontColor=default;" parent="skANhm0GrGiO8IPpH63l-5" source="IFv3RHAwgai954pIq1Md-2" target="IFv3RHAwgai954pIq1Md-5" edge="1">
                    <mxGeometry relative="1" as="geometry"/>
                </mxCell>
                <mxCell id="IFv3RHAwgai954pIq1Md-2" value="Remove Notion (transfer content to Lead Manager) and Miro access" style="whiteSpace=wrap;html=1;rounded=1;" parent="skANhm0GrGiO8IPpH63l-5" vertex="1">
                    <mxGeometry x="412" y="37" width="120" height="60" as="geometry"/>
                </mxCell>
                <mxCell id="IFv3RHAwgai954pIq1Md-9" style="edgeStyle=orthogonalEdgeStyle;html=1;entryX=0;entryY=0.5;entryDx=0;entryDy=0;fontFamily=Helvetica;fontSize=12;fontColor=default;" parent="skANhm0GrGiO8IPpH63l-5" source="IFv3RHAwgai954pIq1Md-5" target="skANhm0GrGiO8IPpH63l-14" edge="1">
                    <mxGeometry relative="1" as="geometry"/>
                </mxCell>
                <mxCell id="IFv3RHAwgai954pIq1Md-5" value="Remove access to Atlassian and GitHub Org&amp;nbsp;" style="whiteSpace=wrap;html=1;rounded=1;strokeColor=default;fontFamily=Helvetica;fontSize=12;fontColor=default;fillColor=default;" parent="skANhm0GrGiO8IPpH63l-5" vertex="1">
                    <mxGeometry x="555" y="37" width="100" height="60" as="geometry"/>
                </mxCell>
                <mxCell id="IFv3RHAwgai954pIq1Md-10" value="Close Jira ticket" style="whiteSpace=wrap;html=1;rounded=1;" parent="skANhm0GrGiO8IPpH63l-5" vertex="1">
                    <mxGeometry x="911" y="37" width="61" height="60" as="geometry"/>
                </mxCell>
                <mxCell id="skANhm0GrGiO8IPpH63l-37" style="edgeStyle=orthogonalEdgeStyle;html=1;dashed=1;exitX=0.5;exitY=1;exitDx=0;exitDy=0;exitPerimeter=0;entryX=0.5;entryY=0;entryDx=0;entryDy=0;" parent="skANhm0GrGiO8IPpH63l-4" source="y5oU_dKVdZaJTqCpDQ2u-10" target="skANhm0GrGiO8IPpH63l-9" edge="1">
                    <mxGeometry relative="1" as="geometry">
                        <mxPoint x="216.99" y="88.98000000000002" as="sourcePoint"/>
                        <Array as="points">
                            <mxPoint x="330" y="111"/>
                            <mxPoint x="117" y="111"/>
                        </Array>
                    </mxGeometry>
                </mxCell>
                <mxCell id="IFv3RHAwgai954pIq1Md-14" style="edgeStyle=orthogonalEdgeStyle;html=1;entryX=0.5;entryY=1;entryDx=0;entryDy=0;entryPerimeter=0;fontFamily=Helvetica;fontSize=12;fontColor=default;dashed=1;" parent="skANhm0GrGiO8IPpH63l-4" source="IFv3RHAwgai954pIq1Md-10" target="y5oU_dKVdZaJTqCpDQ2u-12" edge="1">
                    <mxGeometry relative="1" as="geometry">
                        <Array as="points">
                            <mxPoint x="962" y="111"/>
                            <mxPoint x="784" y="111"/>
                        </Array>
                    </mxGeometry>
                </mxCell>
                <mxCell id="skANhm0GrGiO8IPpH63l-42" value="An &lt;b&gt;IT service&lt;/b&gt;&amp;nbsp;&lt;b&gt;(Tool)&lt;/b&gt; can be:&lt;br&gt;1. Software as a Service: Google Calendar, Figma, ...&lt;br&gt;2. Engineering Tool: GitHub repo, Jira board, ...&lt;br&gt;3. Communication Tool: Discord, Discourse, ...&lt;br&gt;4. Cloud Infrastructure: Google Cloud, Hetzner, ..." style="text;html=1;align=left;verticalAlign=middle;resizable=0;points=[];autosize=1;strokeColor=#b85450;fillColor=#f8cecc;" parent="skANhm0GrGiO8IPpH63l-1" vertex="1">
                    <mxGeometry x="40" y="110" width="310" height="90" as="geometry"/>
                </mxCell>
                <mxCell id="IFv3RHAwgai954pIq1Md-18" value="This task will remove the &lt;br&gt;access of tools are being managed &lt;br&gt;through 1Password only" style="text;html=1;align=center;verticalAlign=middle;resizable=0;points=[];autosize=1;strokeColor=#666666;fillColor=#f5f5f5;fontSize=12;fontFamily=Helvetica;fontColor=#333333;" parent="skANhm0GrGiO8IPpH63l-1" vertex="1">
                    <mxGeometry x="590" y="540" width="210" height="60" as="geometry"/>
                </mxCell>
                <mxCell id="IFv3RHAwgai954pIq1Md-19" style="html=1;fontFamily=Helvetica;fontSize=12;fontColor=default;dashed=1;dashPattern=1 4;endArrow=none;endFill=0;" parent="skANhm0GrGiO8IPpH63l-1" source="skANhm0GrGiO8IPpH63l-14" target="IFv3RHAwgai954pIq1Md-18" edge="1">
                    <mxGeometry relative="1" as="geometry"/>
                </mxCell>
                <mxCell id="IFv3RHAwgai954pIq1Md-20" value="This other task should remove the access of other &lt;br&gt;tools are not being managed through 1Password, &lt;br&gt;this means that Line Manager or People Ops should &lt;br&gt;provide info about these tools" style="text;html=1;align=center;verticalAlign=middle;resizable=0;points=[];autosize=1;strokeColor=#666666;fillColor=#f5f5f5;fontSize=12;fontFamily=Helvetica;fontColor=#333333;" parent="skANhm0GrGiO8IPpH63l-1" vertex="1">
                    <mxGeometry x="820" y="535" width="300" height="70" as="geometry"/>
                </mxCell>
                <mxCell id="IFv3RHAwgai954pIq1Md-21" style="edgeStyle=none;html=1;dashed=1;dashPattern=1 4;fontFamily=Helvetica;fontSize=12;fontColor=default;endArrow=none;endFill=0;" parent="skANhm0GrGiO8IPpH63l-1" source="skANhm0GrGiO8IPpH63l-15" target="IFv3RHAwgai954pIq1Md-20" edge="1">
                    <mxGeometry relative="1" as="geometry"/>
                </mxCell>
            </root>
        </mxGraphModel>
    </diagram>
    <diagram name="Product Release" id="3ZfOZma2MGGEMW4V7M_9">
        <mxGraphModel dx="1386" dy="576" grid="1" gridSize="10" guides="1" tooltips="1" connect="1" arrows="1" fold="1" page="1" pageScale="1" pageWidth="1169" pageHeight="827" math="0" shadow="0">
            <root>
                <mxCell id="Dgd7Sp5HzA7Q1Rpnzh4L-0"/>
                <mxCell id="Dgd7Sp5HzA7Q1Rpnzh4L-1" parent="Dgd7Sp5HzA7Q1Rpnzh4L-0"/>
                <mxCell id="Dgd7Sp5HzA7Q1Rpnzh4L-2" value="&lt;h3&gt;Product (Software) Release&lt;/h3&gt;" style="text;strokeColor=none;fillColor=none;html=1;fontSize=24;fontStyle=1;verticalAlign=middle;align=left;" vertex="1" parent="Dgd7Sp5HzA7Q1Rpnzh4L-1">
                    <mxGeometry x="40" y="40" width="420" height="40" as="geometry"/>
                </mxCell>
                <mxCell id="Dgd7Sp5HzA7Q1Rpnzh4L-3" value="v1.0.0" style="text;html=1;strokeColor=none;fillColor=none;align=left;verticalAlign=middle;whiteSpace=wrap;rounded=0;" vertex="1" parent="Dgd7Sp5HzA7Q1Rpnzh4L-1">
                    <mxGeometry x="40" y="80" width="60" height="30" as="geometry"/>
                </mxCell>
                <mxCell id="Dgd7Sp5HzA7Q1Rpnzh4L-5" value="Developer" style="swimlane;startSize=20;horizontal=0;html=1;rounded=1;" vertex="1" parent="Dgd7Sp5HzA7Q1Rpnzh4L-1">
                    <mxGeometry x="40" y="404" width="1090" height="120" as="geometry"/>
                </mxCell>
                <mxCell id="wWdNtCbkpWb5ubXVhC4A-1" style="edgeStyle=none;html=1;entryX=0;entryY=0.5;entryDx=0;entryDy=0;entryPerimeter=0;" edge="1" parent="Dgd7Sp5HzA7Q1Rpnzh4L-5" source="Dgd7Sp5HzA7Q1Rpnzh4L-7" target="wWdNtCbkpWb5ubXVhC4A-0">
                    <mxGeometry relative="1" as="geometry"/>
                </mxCell>
                <mxCell id="Dgd7Sp5HzA7Q1Rpnzh4L-7" value="Push changes into &lt;b&gt;source&lt;/b&gt; branch according Git commit practice" style="points=[[0.25,0,0],[0.5,0,0],[0.75,0,0],[1,0.25,0],[1,0.5,0],[1,0.75,0],[0.75,1,0],[0.5,1,0],[0.25,1,0],[0,0.75,0],[0,0.5,0],[0,0.25,0]];shape=mxgraph.bpmn.task;whiteSpace=wrap;rectStyle=rounded;size=10;html=1;container=1;expand=0;collapsible=0;taskMarker=abstract;rounded=1;" vertex="1" parent="Dgd7Sp5HzA7Q1Rpnzh4L-5">
                    <mxGeometry x="563" y="30" width="150" height="60" as="geometry"/>
                </mxCell>
                <mxCell id="Dgd7Sp5HzA7Q1Rpnzh4L-11" value="End" style="points=[[0.145,0.145,0],[0.5,0,0],[0.855,0.145,0],[1,0.5,0],[0.855,0.855,0],[0.5,1,0],[0.145,0.855,0],[0,0.5,0]];shape=mxgraph.bpmn.event;html=1;verticalLabelPosition=bottom;labelBackgroundColor=#ffffff;verticalAlign=top;align=center;perimeter=ellipsePerimeter;outlineConnect=0;aspect=fixed;outline=end;symbol=terminate2;rounded=1;" vertex="1" parent="Dgd7Sp5HzA7Q1Rpnzh4L-5">
                    <mxGeometry x="930" y="35" width="50" height="50" as="geometry"/>
                </mxCell>
                <mxCell id="Lg1wa0Y5ARZo19MU-YOR-42" style="edgeStyle=none;html=1;" edge="1" parent="Dgd7Sp5HzA7Q1Rpnzh4L-5" source="Lg1wa0Y5ARZo19MU-YOR-41" target="Dgd7Sp5HzA7Q1Rpnzh4L-7">
                    <mxGeometry relative="1" as="geometry"/>
                </mxCell>
                <mxCell id="Lg1wa0Y5ARZo19MU-YOR-41" value="Start" style="points=[[0.145,0.145,0],[0.5,0,0],[0.855,0.145,0],[1,0.5,0],[0.855,0.855,0],[0.5,1,0],[0.145,0.855,0],[0,0.5,0]];shape=mxgraph.bpmn.event;html=1;verticalLabelPosition=bottom;labelBackgroundColor=#ffffff;verticalAlign=top;align=center;perimeter=ellipsePerimeter;outlineConnect=0;aspect=fixed;outline=standard;symbol=general;rounded=1;" vertex="1" parent="Dgd7Sp5HzA7Q1Rpnzh4L-5">
                    <mxGeometry x="465" y="35" width="50" height="50" as="geometry"/>
                </mxCell>
                <mxCell id="wWdNtCbkpWb5ubXVhC4A-2" style="edgeStyle=none;html=1;entryX=0;entryY=0.5;entryDx=0;entryDy=0;entryPerimeter=0;" edge="1" parent="Dgd7Sp5HzA7Q1Rpnzh4L-5" source="wWdNtCbkpWb5ubXVhC4A-0" target="Dgd7Sp5HzA7Q1Rpnzh4L-11">
                    <mxGeometry relative="1" as="geometry"/>
                </mxCell>
                <mxCell id="wWdNtCbkpWb5ubXVhC4A-0" value="" style="points=[[0.145,0.145,0],[0.5,0,0],[0.855,0.145,0],[1,0.5,0],[0.855,0.855,0],[0.5,1,0],[0.145,0.855,0],[0,0.5,0]];shape=mxgraph.bpmn.event;html=1;verticalLabelPosition=bottom;labelBackgroundColor=#ffffff;verticalAlign=top;align=center;perimeter=ellipsePerimeter;outlineConnect=0;aspect=fixed;outline=standard;symbol=timer;rounded=1;" vertex="1" parent="Dgd7Sp5HzA7Q1Rpnzh4L-5">
                    <mxGeometry x="753" y="35" width="50" height="50" as="geometry"/>
                </mxCell>
                <mxCell id="Lg1wa0Y5ARZo19MU-YOR-1" value="Release Manager" style="swimlane;startSize=20;horizontal=0;html=1;rounded=1;" vertex="1" parent="Dgd7Sp5HzA7Q1Rpnzh4L-1">
                    <mxGeometry x="40" y="544" width="1090" height="120" as="geometry"/>
                </mxCell>
                <mxCell id="Lg1wa0Y5ARZo19MU-YOR-2" style="edgeStyle=orthogonalEdgeStyle;rounded=1;orthogonalLoop=1;jettySize=auto;html=1;" edge="1" parent="Lg1wa0Y5ARZo19MU-YOR-1" source="Lg1wa0Y5ARZo19MU-YOR-3" target="Lg1wa0Y5ARZo19MU-YOR-4">
                    <mxGeometry relative="1" as="geometry"/>
                </mxCell>
                <mxCell id="Lg1wa0Y5ARZo19MU-YOR-3" value="According the Releasing Day strategy, freeze the Git branch&amp;nbsp;or get the last commit to include in the release" style="points=[[0.25,0,0],[0.5,0,0],[0.75,0,0],[1,0.25,0],[1,0.5,0],[1,0.75,0],[0.75,1,0],[0.5,1,0],[0.25,1,0],[0,0.75,0],[0,0.5,0],[0,0.25,0]];shape=mxgraph.bpmn.task;whiteSpace=wrap;rectStyle=rounded;size=10;html=1;container=1;expand=0;collapsible=0;taskMarker=abstract;rounded=1;" vertex="1" parent="Lg1wa0Y5ARZo19MU-YOR-1">
                    <mxGeometry x="150" y="27" width="220" height="60" as="geometry"/>
                </mxCell>
                <mxCell id="wWdNtCbkpWb5ubXVhC4A-4" style="edgeStyle=none;html=1;entryX=0;entryY=0.5;entryDx=0;entryDy=0;entryPerimeter=0;" edge="1" parent="Lg1wa0Y5ARZo19MU-YOR-1" source="Lg1wa0Y5ARZo19MU-YOR-4" target="wWdNtCbkpWb5ubXVhC4A-3">
                    <mxGeometry relative="1" as="geometry"/>
                </mxCell>
                <mxCell id="Lg1wa0Y5ARZo19MU-YOR-4" value="Execute the Release Process in dry-run mode or perform a Pre-Release to validate the assets and changes to be included" style="points=[[0.25,0,0],[0.5,0,0],[0.75,0,0],[1,0.25,0],[1,0.5,0],[1,0.75,0],[0.75,1,0],[0.5,1,0],[0.25,1,0],[0,0.75,0],[0,0.5,0],[0,0.25,0]];shape=mxgraph.bpmn.task;whiteSpace=wrap;rectStyle=rounded;size=10;html=1;container=1;expand=0;collapsible=0;taskMarker=abstract;rounded=1;" vertex="1" parent="Lg1wa0Y5ARZo19MU-YOR-1">
                    <mxGeometry x="416" y="27" width="184" height="60" as="geometry"/>
                </mxCell>
                <mxCell id="Lg1wa0Y5ARZo19MU-YOR-5" style="edgeStyle=orthogonalEdgeStyle;html=1;fontFamily=Helvetica;fontSize=12;fontColor=default;" edge="1" parent="Lg1wa0Y5ARZo19MU-YOR-1" source="Lg1wa0Y5ARZo19MU-YOR-6" target="Lg1wa0Y5ARZo19MU-YOR-3">
                    <mxGeometry relative="1" as="geometry"/>
                </mxCell>
                <mxCell id="Lg1wa0Y5ARZo19MU-YOR-6" value="Start" style="points=[[0.145,0.145,0],[0.5,0,0],[0.855,0.145,0],[1,0.5,0],[0.855,0.855,0],[0.5,1,0],[0.145,0.855,0],[0,0.5,0]];shape=mxgraph.bpmn.event;html=1;verticalLabelPosition=bottom;labelBackgroundColor=#ffffff;verticalAlign=top;align=center;perimeter=ellipsePerimeter;outlineConnect=0;aspect=fixed;outline=standard;symbol=general;rounded=1;" vertex="1" parent="Lg1wa0Y5ARZo19MU-YOR-1">
                    <mxGeometry x="60" y="32" width="50" height="50" as="geometry"/>
                </mxCell>
                <mxCell id="Lg1wa0Y5ARZo19MU-YOR-7" value="End" style="points=[[0.145,0.145,0],[0.5,0,0],[0.855,0.145,0],[1,0.5,0],[0.855,0.855,0],[0.5,1,0],[0.145,0.855,0],[0,0.5,0]];shape=mxgraph.bpmn.event;html=1;verticalLabelPosition=bottom;labelBackgroundColor=#ffffff;verticalAlign=top;align=center;perimeter=ellipsePerimeter;outlineConnect=0;aspect=fixed;outline=end;symbol=terminate2;rounded=1;" vertex="1" parent="Lg1wa0Y5ARZo19MU-YOR-1">
                    <mxGeometry x="996" y="32" width="50" height="50" as="geometry"/>
                </mxCell>
                <mxCell id="wWdNtCbkpWb5ubXVhC4A-6" style="edgeStyle=none;html=1;entryX=0;entryY=0.5;entryDx=0;entryDy=0;entryPerimeter=0;" edge="1" parent="Lg1wa0Y5ARZo19MU-YOR-1" source="wWdNtCbkpWb5ubXVhC4A-3" target="wWdNtCbkpWb5ubXVhC4A-5">
                    <mxGeometry relative="1" as="geometry"/>
                </mxCell>
                <mxCell id="wWdNtCbkpWb5ubXVhC4A-3" value="Verify Pre-Release" style="points=[[0.25,0.25,0],[0.5,0,0],[0.75,0.25,0],[1,0.5,0],[0.75,0.75,0],[0.5,1,0],[0.25,0.75,0],[0,0.5,0]];shape=mxgraph.bpmn.gateway2;html=1;verticalLabelPosition=bottom;labelBackgroundColor=#ffffff;verticalAlign=top;align=center;perimeter=rhombusPerimeter;outlineConnect=0;outline=none;symbol=none;" vertex="1" parent="Lg1wa0Y5ARZo19MU-YOR-1">
                    <mxGeometry x="640" y="32" width="50" height="50" as="geometry"/>
                </mxCell>
                <mxCell id="wWdNtCbkpWb5ubXVhC4A-13" style="edgeStyle=orthogonalEdgeStyle;html=1;entryX=0;entryY=0.5;entryDx=0;entryDy=0;entryPerimeter=0;dashed=1;" edge="1" parent="Lg1wa0Y5ARZo19MU-YOR-1" source="wWdNtCbkpWb5ubXVhC4A-5" target="wWdNtCbkpWb5ubXVhC4A-12">
                    <mxGeometry relative="1" as="geometry"/>
                </mxCell>
                <mxCell id="wWdNtCbkpWb5ubXVhC4A-5" value="Trigger the Release Process" style="points=[[0.25,0,0],[0.5,0,0],[0.75,0,0],[1,0.25,0],[1,0.5,0],[1,0.75,0],[0.75,1,0],[0.5,1,0],[0.25,1,0],[0,0.75,0],[0,0.5,0],[0,0.25,0]];shape=mxgraph.bpmn.task;whiteSpace=wrap;rectStyle=rounded;size=10;html=1;container=1;expand=0;collapsible=0;taskMarker=abstract;rounded=1;" vertex="1" parent="Lg1wa0Y5ARZo19MU-YOR-1">
                    <mxGeometry x="734" y="27" width="106" height="60" as="geometry"/>
                </mxCell>
                <mxCell id="wWdNtCbkpWb5ubXVhC4A-7" value="Ok" style="text;html=1;align=center;verticalAlign=middle;resizable=0;points=[];autosize=1;strokeColor=none;fillColor=none;" vertex="1" parent="Lg1wa0Y5ARZo19MU-YOR-1">
                    <mxGeometry x="681" y="30" width="40" height="30" as="geometry"/>
                </mxCell>
                <mxCell id="wWdNtCbkpWb5ubXVhC4A-9" value="Error" style="text;html=1;align=center;verticalAlign=middle;resizable=0;points=[];autosize=1;strokeColor=none;fillColor=none;" vertex="1" parent="Lg1wa0Y5ARZo19MU-YOR-1">
                    <mxGeometry x="620" y="2" width="50" height="30" as="geometry"/>
                </mxCell>
                <mxCell id="wWdNtCbkpWb5ubXVhC4A-14" style="edgeStyle=orthogonalEdgeStyle;html=1;entryX=0;entryY=0.5;entryDx=0;entryDy=0;entryPerimeter=0;dashed=1;" edge="1" parent="Lg1wa0Y5ARZo19MU-YOR-1" source="wWdNtCbkpWb5ubXVhC4A-12" target="Lg1wa0Y5ARZo19MU-YOR-7">
                    <mxGeometry relative="1" as="geometry"/>
                </mxCell>
                <mxCell id="wWdNtCbkpWb5ubXVhC4A-12" value="Deploy new Release" style="points=[[0.25,0,0],[0.5,0,0],[0.75,0,0],[1,0.25,0],[1,0.5,0],[1,0.75,0],[0.75,1,0],[0.5,1,0],[0.25,1,0],[0,0.75,0],[0,0.5,0],[0,0.25,0]];shape=mxgraph.bpmn.task;whiteSpace=wrap;rectStyle=rounded;size=10;html=1;container=1;expand=0;collapsible=0;taskMarker=abstract;rounded=1;" vertex="1" parent="Lg1wa0Y5ARZo19MU-YOR-1">
                    <mxGeometry x="870" y="27" width="80" height="60" as="geometry"/>
                </mxCell>
                <mxCell id="Lg1wa0Y5ARZo19MU-YOR-20" value="DevOps" style="swimlane;startSize=20;horizontal=0;html=1;rounded=1;" vertex="1" parent="Dgd7Sp5HzA7Q1Rpnzh4L-1">
                    <mxGeometry x="40" y="204" width="1090" height="120" as="geometry"/>
                </mxCell>
                <mxCell id="Lg1wa0Y5ARZo19MU-YOR-21" value="" style="edgeStyle=none;html=1;" edge="1" parent="Lg1wa0Y5ARZo19MU-YOR-20" source="Lg1wa0Y5ARZo19MU-YOR-22" target="Lg1wa0Y5ARZo19MU-YOR-30">
                    <mxGeometry relative="1" as="geometry"/>
                </mxCell>
                <mxCell id="Lg1wa0Y5ARZo19MU-YOR-22" value="Define if it will be a release or pre-release process" style="points=[[0.25,0,0],[0.5,0,0],[0.75,0,0],[1,0.25,0],[1,0.5,0],[1,0.75,0],[0.75,1,0],[0.5,1,0],[0.25,1,0],[0,0.75,0],[0,0.5,0],[0,0.25,0]];shape=mxgraph.bpmn.task;whiteSpace=wrap;rectStyle=rounded;size=10;html=1;container=1;expand=0;collapsible=0;taskMarker=abstract;rounded=1;" vertex="1" parent="Lg1wa0Y5ARZo19MU-YOR-20">
                    <mxGeometry x="264" y="24" width="100" height="60" as="geometry"/>
                </mxCell>
                <mxCell id="Lg1wa0Y5ARZo19MU-YOR-23" style="edgeStyle=none;html=1;" edge="1" parent="Lg1wa0Y5ARZo19MU-YOR-20" source="Lg1wa0Y5ARZo19MU-YOR-24" target="Lg1wa0Y5ARZo19MU-YOR-22">
                    <mxGeometry relative="1" as="geometry"/>
                </mxCell>
                <mxCell id="Lg1wa0Y5ARZo19MU-YOR-24" value="Select the &lt;b&gt;source&lt;/b&gt; and &lt;b&gt;target&lt;/b&gt; (release) branches" style="whiteSpace=wrap;html=1;verticalAlign=top;labelBackgroundColor=#ffffff;rounded=1;" vertex="1" parent="Lg1wa0Y5ARZo19MU-YOR-20">
                    <mxGeometry x="120" y="24" width="119" height="60" as="geometry"/>
                </mxCell>
                <mxCell id="Lg1wa0Y5ARZo19MU-YOR-25" style="edgeStyle=none;html=1;" edge="1" parent="Lg1wa0Y5ARZo19MU-YOR-20" source="Lg1wa0Y5ARZo19MU-YOR-26" target="Lg1wa0Y5ARZo19MU-YOR-35">
                    <mxGeometry relative="1" as="geometry"/>
                </mxCell>
                <mxCell id="Lg1wa0Y5ARZo19MU-YOR-26" value="Define Change Log strategy" style="whiteSpace=wrap;html=1;rounded=1;" vertex="1" parent="Lg1wa0Y5ARZo19MU-YOR-20">
                    <mxGeometry x="766" y="24" width="88" height="60" as="geometry"/>
                </mxCell>
                <mxCell id="Lg1wa0Y5ARZo19MU-YOR-36" value="" style="edgeStyle=none;html=1;" edge="1" parent="Lg1wa0Y5ARZo19MU-YOR-20" source="Lg1wa0Y5ARZo19MU-YOR-28" target="Lg1wa0Y5ARZo19MU-YOR-34">
                    <mxGeometry relative="1" as="geometry"/>
                </mxCell>
                <mxCell id="Lg1wa0Y5ARZo19MU-YOR-28" value="Enforce Git branching strategy and Git commit practice" style="whiteSpace=wrap;html=1;rounded=1;" vertex="1" parent="Lg1wa0Y5ARZo19MU-YOR-20">
                    <mxGeometry x="507" y="24" width="118" height="60" as="geometry"/>
                </mxCell>
                <mxCell id="Lg1wa0Y5ARZo19MU-YOR-29" value="" style="edgeStyle=none;html=1;" edge="1" parent="Lg1wa0Y5ARZo19MU-YOR-20" source="Lg1wa0Y5ARZo19MU-YOR-30" target="Lg1wa0Y5ARZo19MU-YOR-28">
                    <mxGeometry relative="1" as="geometry"/>
                </mxCell>
                <mxCell id="Lg1wa0Y5ARZo19MU-YOR-30" value="Select the Release Tooling" style="whiteSpace=wrap;html=1;rounded=1;" vertex="1" parent="Lg1wa0Y5ARZo19MU-YOR-20">
                    <mxGeometry x="387" y="24" width="94" height="60" as="geometry"/>
                </mxCell>
                <mxCell id="Lg1wa0Y5ARZo19MU-YOR-33" style="edgeStyle=none;html=1;" edge="1" parent="Lg1wa0Y5ARZo19MU-YOR-20" source="Lg1wa0Y5ARZo19MU-YOR-34" target="Lg1wa0Y5ARZo19MU-YOR-26">
                    <mxGeometry relative="1" as="geometry"/>
                </mxCell>
                <mxCell id="Lg1wa0Y5ARZo19MU-YOR-34" value="Embrace a Version strategy" style="whiteSpace=wrap;html=1;rounded=1;" vertex="1" parent="Lg1wa0Y5ARZo19MU-YOR-20">
                    <mxGeometry x="652" y="24" width="86" height="60" as="geometry"/>
                </mxCell>
                <mxCell id="Lg1wa0Y5ARZo19MU-YOR-38" style="edgeStyle=none;html=1;entryX=0;entryY=0.5;entryDx=0;entryDy=0;entryPerimeter=0;" edge="1" parent="Lg1wa0Y5ARZo19MU-YOR-20" source="Lg1wa0Y5ARZo19MU-YOR-35" target="Lg1wa0Y5ARZo19MU-YOR-37">
                    <mxGeometry relative="1" as="geometry"/>
                </mxCell>
                <mxCell id="Lg1wa0Y5ARZo19MU-YOR-35" value="Automate the entire flow and integrate it in current CI/CD" style="whiteSpace=wrap;html=1;rounded=1;" vertex="1" parent="Lg1wa0Y5ARZo19MU-YOR-20">
                    <mxGeometry x="878" y="24" width="100" height="60" as="geometry"/>
                </mxCell>
                <mxCell id="Lg1wa0Y5ARZo19MU-YOR-37" value="End" style="points=[[0.145,0.145,0],[0.5,0,0],[0.855,0.145,0],[1,0.5,0],[0.855,0.855,0],[0.5,1,0],[0.145,0.855,0],[0,0.5,0]];shape=mxgraph.bpmn.event;html=1;verticalLabelPosition=bottom;labelBackgroundColor=#ffffff;verticalAlign=top;align=center;perimeter=ellipsePerimeter;outlineConnect=0;aspect=fixed;outline=end;symbol=terminate2;rounded=1;" vertex="1" parent="Lg1wa0Y5ARZo19MU-YOR-20">
                    <mxGeometry x="1022" y="29" width="50" height="50" as="geometry"/>
                </mxCell>
                <mxCell id="Lg1wa0Y5ARZo19MU-YOR-40" style="edgeStyle=none;html=1;entryX=0;entryY=0.5;entryDx=0;entryDy=0;" edge="1" parent="Lg1wa0Y5ARZo19MU-YOR-20" source="Lg1wa0Y5ARZo19MU-YOR-39" target="Lg1wa0Y5ARZo19MU-YOR-24">
                    <mxGeometry relative="1" as="geometry"/>
                </mxCell>
                <mxCell id="Lg1wa0Y5ARZo19MU-YOR-39" value="Start" style="points=[[0.145,0.145,0],[0.5,0,0],[0.855,0.145,0],[1,0.5,0],[0.855,0.855,0],[0.5,1,0],[0.145,0.855,0],[0,0.5,0]];shape=mxgraph.bpmn.event;html=1;verticalLabelPosition=bottom;labelBackgroundColor=#ffffff;verticalAlign=top;align=center;perimeter=ellipsePerimeter;outlineConnect=0;aspect=fixed;outline=standard;symbol=general;rounded=1;" vertex="1" parent="Lg1wa0Y5ARZo19MU-YOR-20">
                    <mxGeometry x="38" y="29" width="50" height="50" as="geometry"/>
                </mxCell>
                <mxCell id="wWdNtCbkpWb5ubXVhC4A-8" style="edgeStyle=orthogonalEdgeStyle;html=1;entryX=0.5;entryY=1;entryDx=0;entryDy=0;entryPerimeter=0;dashed=1;" edge="1" parent="Dgd7Sp5HzA7Q1Rpnzh4L-1" source="wWdNtCbkpWb5ubXVhC4A-3" target="Dgd7Sp5HzA7Q1Rpnzh4L-7">
                    <mxGeometry relative="1" as="geometry">
                        <Array as="points">
                            <mxPoint x="705" y="534"/>
                            <mxPoint x="678" y="534"/>
                        </Array>
                    </mxGeometry>
                </mxCell>
                <mxCell id="wWdNtCbkpWb5ubXVhC4A-10" style="edgeStyle=orthogonalEdgeStyle;html=1;dashed=1;" edge="1" parent="Dgd7Sp5HzA7Q1Rpnzh4L-1" source="wWdNtCbkpWb5ubXVhC4A-0" target="Lg1wa0Y5ARZo19MU-YOR-4">
                    <mxGeometry relative="1" as="geometry">
                        <Array as="points">
                            <mxPoint x="818" y="514"/>
                            <mxPoint x="548" y="514"/>
                        </Array>
                    </mxGeometry>
                </mxCell>
                <mxCell id="wWdNtCbkpWb5ubXVhC4A-15" value="&lt;h4&gt;1. Preview&lt;/h4&gt;" style="text;strokeColor=none;fillColor=none;html=1;fontSize=24;fontStyle=1;verticalAlign=middle;align=left;" vertex="1" parent="Dgd7Sp5HzA7Q1Rpnzh4L-1">
                    <mxGeometry x="40" y="140" width="260" height="40" as="geometry"/>
                </mxCell>
                <mxCell id="wWdNtCbkpWb5ubXVhC4A-16" value="&lt;h4&gt;2. Execution&lt;/h4&gt;" style="text;strokeColor=none;fillColor=none;html=1;fontSize=24;fontStyle=1;verticalAlign=middle;align=left;" vertex="1" parent="Dgd7Sp5HzA7Q1Rpnzh4L-1">
                    <mxGeometry x="40" y="350" width="260" height="40" as="geometry"/>
                </mxCell>
            </root>
        </mxGraphModel>
    </diagram>
</mxfile>